<svg width="25" height="24" viewBox="0 0 25 24" fill="none" xmlns="http://www.w3.org/2000/svg">
<g id="beenhere" clip-path="url(#clip0_1456_34566)">
<path id="Vector" d="M19.5 1H5.5C4.4 1 3.51 1.9 3.51 3L3.5 15.93C3.5 16.62 3.85 17.23 4.38 17.59L12.5 23L20.61 17.59C21.14 17.23 21.49 16.62 21.49 15.93L21.5 3C21.5 1.9 20.6 1 19.5 1ZM12.5 20.6L5.5 15.94V3H19.5V15.93L12.5 20.6ZM10.49 13.18L7.91 10.59L6.5 12L10.5 16L18.5 8L17.08 6.58L10.49 13.18Z" fill="#323232"/>
</g>
<defs>
<clipPath id="clip0_1456_34566">
<rect width="24" height="24" fill="white" transform="translate(0.5)"/>
</clipPath>
</defs>
</svg>
