<svg width="25" height="24" viewBox="0 0 25 24" fill="none" xmlns="http://www.w3.org/2000/svg">
<g id="perm_identity" clip-path="url(#clip0_1456_34569)">
<path id="Vector" d="M12.5 6C13.6 6 14.5 6.9 14.5 8C14.5 9.1 13.6 10 12.5 10C11.4 10 10.5 9.1 10.5 8C10.5 6.9 11.4 6 12.5 6ZM12.5 15C15.2 15 18.3 16.29 18.5 17V18H6.5V17.01C6.7 16.29 9.8 15 12.5 15ZM12.5 4C10.29 4 8.5 5.79 8.5 8C8.5 10.21 10.29 12 12.5 12C14.71 12 16.5 10.21 16.5 8C16.5 5.79 14.71 4 12.5 4ZM12.5 13C9.83 13 4.5 14.34 4.5 17V20H20.5V17C20.5 14.34 15.17 13 12.5 13Z" fill="#323232"/>
</g>
<defs>
<clipPath id="clip0_1456_34569">
<rect width="24" height="24" fill="white" transform="translate(0.5)"/>
</clipPath>
</defs>
</svg>
