<svg width="24" height="24" viewBox="0 0 24 24" fill="none" xmlns="http://www.w3.org/2000/svg">
<g id="social">
<rect id="Rectangle 81" width="24" height="24" rx="5" fill="white"/>
<path id="linkedin" fill-rule="evenodd" clip-rule="evenodd" d="M5 5.974C5 5.44433 5.43946 5 6.00017 5C6.56087 5 7.00033 5.44433 7.00033 5.974C7.00033 6.50367 6.56087 6.948 6.00017 6.948C5.43946 6.948 5 6.50367 5 5.974ZM6.00017 4C4.90384 4 4 4.87553 4 5.974C4 7.07247 4.90384 7.948 6.00017 7.948C7.0965 7.948 8.00033 7.07247 8.00033 5.974C8.00033 4.87553 7.0965 4 6.00017 4ZM15 9.42133C13.9362 9.42133 12.9177 9.83664 12.1681 10.5732C11.4188 11.3094 10.9995 12.306 10.9995 13.3433V18.0023H12.9998V13.3433C12.9998 12.8169 13.2128 12.3139 13.5888 11.9444C13.9646 11.5752 14.4723 11.3693 15 11.3693C15.5277 11.3693 16.0355 11.5752 16.4112 11.9444C16.7873 12.3139 17.0002 12.8169 17.0002 13.3433V18.0023H19.0005V13.3433C19.0005 12.306 18.5812 11.3094 17.8319 10.5732C17.0823 9.83664 16.0638 9.42133 15 9.42133ZM11.4672 9.85985C12.4057 8.9378 13.6766 8.42133 15 8.42133C16.3234 8.42133 17.5944 8.9378 18.5328 9.85985C19.4715 10.7822 20.0005 12.0351 20.0005 13.3433V18.5023C20.0005 18.7785 19.7767 19.0023 19.5005 19.0023H16.5002C16.224 19.0023 16.0002 18.7785 16.0002 18.5023V13.3433C16.0002 13.0879 15.897 12.8411 15.7104 12.6577C15.5234 12.474 15.2681 12.3693 15 12.3693C14.7319 12.3693 14.4766 12.474 14.2897 12.6577C14.103 12.8411 13.9998 13.0879 13.9998 13.3433V18.5023C13.9998 18.7785 13.776 19.0023 13.4998 19.0023H10.4995C10.2234 19.0023 9.99951 18.7785 9.99951 18.5023V13.3433C9.99951 12.0351 10.5285 10.7822 11.4672 9.85985ZM4 9.65831C4 9.38217 4.22386 9.15831 4.5 9.15831H7.50033C7.77648 9.15831 8.00033 9.38217 8.00033 9.65831V18.5023C8.00033 18.7785 7.77648 19.0023 7.50033 19.0023H4.5C4.22386 19.0023 4 18.7785 4 18.5023V9.65831ZM5 10.1583V18.0023H7.00033V10.1583H5Z" fill="black"/>
</g>
</svg>
