<svg width="36" height="37" viewBox="0 0 36 37" fill="none" xmlns="http://www.w3.org/2000/svg">
<g id="fluent:learning-app-20-filled">
<path id="Vector" d="M10.8 4.1001C9.84523 4.1001 8.92956 4.47938 8.25443 5.15451C7.5793 5.82964 7.20001 6.74532 7.20001 7.7001V29.3001C7.20001 30.2549 7.5793 31.1706 8.25443 31.8457C8.92956 32.5208 9.84523 32.9001 10.8 32.9001H18.4626C18.0042 32.3449 17.6076 31.7413 17.28 31.1001H10.8C10.3226 31.1001 9.86479 30.9105 9.52722 30.5729C9.18965 30.2353 9.00001 29.7775 9.00001 29.3001H16.5726C16.0912 27.6044 16.0713 25.8109 16.5149 24.105C16.9584 22.399 17.8495 20.8424 19.0959 19.596C20.3423 18.3496 21.8989 17.4585 23.6049 17.0149C25.3109 16.5714 27.1043 16.5913 28.8 17.0727V7.7001C28.8 6.74532 28.4207 5.82964 27.7456 5.15451C27.0705 4.47938 26.1548 4.1001 25.2 4.1001H10.8ZM12.15 8.6001H23.85C24.2081 8.6001 24.5514 8.74233 24.8046 8.9955C25.0578 9.24868 25.2 9.59206 25.2 9.9501C25.2 10.3081 25.0578 10.6515 24.8046 10.9047C24.5514 11.1579 24.2081 11.3001 23.85 11.3001H12.15C11.792 11.3001 11.4486 11.1579 11.1954 10.9047C10.9422 10.6515 10.8 10.3081 10.8 9.9501C10.8 9.59206 10.9422 9.24868 11.1954 8.9955C11.4486 8.74233 11.792 8.6001 12.15 8.6001ZM34.2 26.6001C34.2 28.7484 33.3466 30.8086 31.8276 32.3277C30.3085 33.8467 28.2483 34.7001 26.1 34.7001C23.9518 34.7001 21.8915 33.8467 20.3724 32.3277C18.8534 30.8086 18 28.7484 18 26.6001C18 24.4518 18.8534 22.3916 20.3724 20.8725C21.8915 19.3535 23.9518 18.5001 26.1 18.5001C28.2483 18.5001 30.3085 19.3535 31.8276 20.8725C33.3466 22.3916 34.2 24.4518 34.2 26.6001ZM25.236 23.0613C25.1193 22.9811 24.9837 22.9328 24.8426 22.9212C24.7014 22.9095 24.5597 22.9348 24.4314 22.9947C24.3267 23.0408 24.2319 23.1068 24.1524 23.1891C23.9847 23.3609 23.891 23.5916 23.8914 23.8317V29.3667C23.8903 29.486 23.9128 29.6044 23.9576 29.715C24.0024 29.8255 24.0686 29.9262 24.1524 30.0111C24.2346 30.0928 24.3302 30.1598 24.435 30.2091C24.6176 30.2928 24.8249 30.3056 25.0164 30.2451C25.0994 30.2178 25.1781 30.179 25.2504 30.1299L29.3832 27.3093C29.509 27.2265 29.6103 27.1115 29.6766 26.9763C29.745 26.8401 29.7802 26.6897 29.7792 26.5374C29.7783 26.385 29.7413 26.235 29.6712 26.0997C29.6008 25.9665 29.4973 25.8537 29.3706 25.7721L25.236 23.0613Z" fill="#114F8C"/>
</g>
</svg>
