<svg width="184" height="56" viewBox="0 0 184 56" fill="none" xmlns="http://www.w3.org/2000/svg">
<g clip-path="url(#clip0_7_63)">
<path fill-rule="evenodd" clip-rule="evenodd" d="M114.15 43.6644C103.458 51.5364 87.9597 55.7364 74.616 55.7364C55.906 55.7364 39.0622 48.8244 26.3193 37.3284C25.3181 36.4244 26.2152 35.1924 27.4166 35.8964C41.1687 43.8884 58.1727 48.6964 75.7373 48.6964C87.5832 48.6964 100.615 46.2484 112.597 41.1684C114.407 40.4004 115.92 42.3524 114.15 43.6644Z" fill="#FF9900"/>
<path fill-rule="evenodd" clip-rule="evenodd" d="M118.596 38.5844C117.234 36.8404 109.561 37.7604 106.117 38.1684C105.068 38.2964 104.908 37.3844 105.853 36.7284C111.964 32.4324 121.992 33.6724 123.161 35.1124C124.33 36.5604 122.857 46.6004 117.114 51.3924C116.233 52.1284 115.392 51.7364 115.784 50.7604C117.074 47.5444 119.965 40.3364 118.596 38.5844Z" fill="#FF9900"/>
<path fill-rule="evenodd" clip-rule="evenodd" d="M106.357 6.40021V2.22421C106.357 1.59221 106.838 1.16821 107.414 1.16821H126.132C126.733 1.16821 127.214 1.60021 127.214 2.22421V5.80021C127.206 6.40021 126.701 7.18421 125.804 8.42421L116.105 22.2562C119.709 22.1682 123.513 22.7042 126.781 24.5442C127.518 24.9602 127.718 25.5682 127.774 26.1682V30.6242C127.774 31.2322 127.102 31.9442 126.397 31.5762C120.638 28.5602 112.989 28.2322 106.622 31.6082C105.973 31.9602 105.292 31.2562 105.292 30.6482V26.4162C105.292 25.7362 105.3 24.5762 105.981 23.5442L117.218 7.44821H107.439C106.838 7.44821 106.357 7.02421 106.357 6.40021Z" fill="black"/>
<path fill-rule="evenodd" clip-rule="evenodd" d="M38.0771 32.4563H32.3824C31.8378 32.4163 31.4053 32.0083 31.3652 31.4883V2.29633C31.3652 1.71233 31.8538 1.24833 32.4625 1.24833H37.7728C38.3254 1.27231 38.7659 1.69632 38.806 2.22432V6.04033H38.9101C40.2957 2.35232 42.8988 0.632324 46.4069 0.632324C49.9711 0.632324 52.1977 2.35232 53.7996 6.04033C55.1772 2.35232 58.3089 0.632324 61.6648 0.632324C64.0516 0.632324 66.6627 1.61632 68.2565 3.82432C70.0587 6.28032 69.6902 9.84832 69.6902 12.9763L69.6822 31.4003C69.6822 31.9843 69.1936 32.4563 68.5849 32.4563H62.8983C62.3296 32.4163 61.8731 31.9603 61.8731 31.4003V15.9283C61.8731 14.6963 61.9852 11.6243 61.7129 10.4563C61.2884 8.49632 60.0149 7.94432 58.3649 7.94432C56.9873 7.94432 55.5456 8.86432 54.9609 10.3363C54.3762 11.8083 54.4323 14.2723 54.4323 15.9283V31.4003C54.4323 31.9843 53.9437 32.4563 53.335 32.4563H47.6484C47.0717 32.4163 46.6231 31.9603 46.6231 31.4003L46.6151 15.9283C46.6151 12.6723 47.1518 7.88032 43.107 7.88032C39.0142 7.88032 39.1744 12.5523 39.1744 15.9283V31.4003C39.1744 31.9843 38.6858 32.4563 38.0771 32.4563" fill="black"/>
<path fill-rule="evenodd" clip-rule="evenodd" d="M143.329 0.632324C151.779 0.632324 156.352 7.88032 156.352 17.0963C156.352 26.0003 151.298 33.0643 143.329 33.0643C135.031 33.0643 130.514 25.8163 130.514 16.7843C130.514 7.69632 135.087 0.632324 143.329 0.632324ZM143.377 6.59232C139.18 6.59232 138.916 12.3043 138.916 15.8643C138.916 19.4323 138.859 27.0483 143.329 27.0483C147.742 27.0483 147.95 20.9043 147.95 17.1603C147.95 14.6963 147.846 11.7523 147.101 9.41632C146.46 7.38432 145.187 6.59232 143.377 6.59232Z" fill="black"/>
<path fill-rule="evenodd" clip-rule="evenodd" d="M167.308 32.4563H161.638C161.069 32.4163 160.612 31.9603 160.612 31.4003L160.604 2.20032C160.653 1.66432 161.125 1.24833 161.702 1.24833H166.98C167.477 1.27231 167.885 1.60833 167.997 2.06433V6.52832H168.101C169.695 2.53632 171.93 0.632324 175.862 0.632324C178.417 0.632324 180.908 1.55233 182.51 4.07232C184 6.40832 184 10.3363 184 13.1603V31.5363C183.936 32.0483 183.463 32.4563 182.903 32.4563H177.192C176.671 32.4163 176.239 32.0323 176.183 31.5363V15.6803C176.183 12.4883 176.551 7.81632 172.619 7.81632C171.233 7.81632 169.959 8.74432 169.327 10.1523C168.526 11.9363 168.422 13.7123 168.422 15.6803V31.4003C168.414 31.9843 167.917 32.4563 167.308 32.4563" fill="black"/>
<path fill-rule="evenodd" clip-rule="evenodd" d="M91.435 18.5123C91.435 20.7283 91.491 22.5763 90.3697 24.5443C89.4647 26.1443 88.023 27.1283 86.4291 27.1283C84.2425 27.1283 82.961 25.4643 82.961 23.0083C82.961 18.1603 87.3101 17.2803 91.435 17.2803V18.5123ZM97.1777 32.3763C96.8013 32.7123 96.2566 32.7363 95.8321 32.5123C93.9419 30.9443 93.5975 30.2163 92.5643 28.7203C89.4406 31.9043 87.222 32.8563 83.1773 32.8563C78.3796 32.8563 74.6553 29.9043 74.6553 23.9923C74.6553 19.3763 77.1542 16.2323 80.7264 14.6963C83.818 13.3363 88.1351 13.0963 91.435 12.7203V11.9843C91.435 10.6323 91.5391 9.03228 90.7382 7.86429C90.0493 6.81629 88.7198 6.38429 87.5424 6.38429C85.3718 6.38429 83.4416 7.49629 82.969 9.80028C82.8729 10.3123 82.4965 10.8163 81.9759 10.8403L76.4574 10.2483C75.9928 10.1443 75.4722 9.76828 75.6084 9.05629C76.8739 2.3683 82.929 0.352295 88.3433 0.352295C91.1146 0.352295 94.7348 1.0883 96.9214 3.18429C99.6927 5.76829 99.4284 9.21628 99.4284 12.9683V21.8323C99.4284 24.4963 100.534 25.6643 101.575 27.1043C101.935 27.6163 102.015 28.2323 101.551 28.6163C100.389 29.5843 98.323 31.3843 97.1857 32.3923L97.1777 32.3762" fill="black"/>
<path fill-rule="evenodd" clip-rule="evenodd" d="M16.7797 18.5125C16.7797 20.7285 16.8358 22.5765 15.7144 24.5445C14.8094 26.1445 13.3757 27.1285 11.7738 27.1285C9.58725 27.1285 8.31376 25.4645 8.31376 23.0085C8.31376 18.1605 12.6629 17.2805 16.7797 17.2805V18.5125ZM22.5224 32.3765C22.146 32.7125 21.6013 32.7365 21.1768 32.5125C19.2866 30.9445 18.9502 30.2165 17.909 28.7205C14.7853 31.9045 12.5748 32.8565 8.522 32.8565C3.73237 32.8565 0 29.9045 0 23.9925C0 19.3765 2.50694 16.2325 6.07112 14.6965C9.16275 13.3365 13.4798 13.0965 16.7797 12.7205V11.9845C16.7797 10.6325 16.8838 9.03253 16.0909 7.86454C15.3941 6.81653 14.0645 6.38453 12.8951 6.38453C10.7246 6.38453 8.78631 7.49653 8.31376 9.80053C8.21764 10.3125 7.8412 10.8165 7.3286 10.8405L1.80212 10.2485C1.33757 10.1445 0.824967 9.76853 0.953117 9.05653C2.22661 2.36854 8.27371 0.352539 13.6881 0.352539C16.4593 0.352539 20.0796 1.08854 22.2661 3.18454C25.0374 5.76853 24.7731 9.21653 24.7731 12.9685V21.8325C24.7731 24.4965 25.8784 25.6645 26.9196 27.1045C27.288 27.6165 27.3681 28.2325 26.9036 28.6165C25.7422 29.5845 23.6758 31.3845 22.5384 32.3925L22.5224 32.3765" fill="black"/>
</g>
<defs>
<clipPath id="clip0_7_63">
<rect width="184" height="55.384" fill="white" transform="translate(0 0.352295)"/>
</clipPath>
</defs>
</svg>
