<svg width="114" height="114" viewBox="0 0 114 114" fill="none" xmlns="http://www.w3.org/2000/svg">
<g clip-path="url(#clip0_1033_26110)">
<path d="M89.8058 35.4562C88.6583 35.9188 48.5939 59.1255 48.5939 59.1255L19.7572 67.4295L55.3054 48.9252L89.8058 35.4562Z" fill="#D6E7FA"/>
<path d="M56.3326 73.7095L27.5824 81.1894C27.5824 81.1894 23.1407 79.4357 21.2342 74.7403C19.3267 70.0453 19.7569 67.4296 19.7569 67.4296L48.5945 59.1251C48.5945 59.1251 46.3828 63.3952 49.883 68.2471C53.3757 73.0982 56.3326 73.7095 56.3326 73.7095Z" fill="url(#paint0_linear_1033_26110)"/>
<path d="M28.6214 65.1577C28.6214 65.1577 28.195 67.7738 30.1015 72.4669C31.9534 77.0307 36.1942 78.8118 36.4411 78.9109L33.8356 79.59C33.8356 79.59 29.3949 77.8358 27.486 73.1381C25.5795 68.445 26.0059 65.8288 26.0059 65.8288" fill="#A1BEF2"/>
<path d="M50.6163 59.7319C50.6163 59.7319 49.7295 67.5301 56.423 71.4343L94.5491 50.0715C94.5491 50.0715 95.9606 49.0058 96.8115 49.0481C97.6576 49.0927 97.5009 50.4368 97.5009 50.4368L56.3339 73.708C56.3339 73.708 53.377 73.0968 49.8839 68.2471C46.3837 63.3952 48.5954 59.1251 48.5954 59.1251C48.5954 59.1251 88.6594 35.9175 89.8073 35.4557C90.9548 34.9931 90.9704 36.7397 90.9704 36.7397L88.435 38.1684L50.6163 59.7319Z" fill="#A1BEF2"/>
<path d="M91.0508 45.8239C92.4325 48.0865 94.5474 50.072 94.5474 50.072L56.4213 71.4348C56.4213 71.4348 56.4118 71.4279 56.3933 71.4149C49.7313 67.5052 50.6136 59.7328 50.6136 59.7328L88.4333 38.1689C88.4333 38.1689 88.5396 38.4314 88.7026 38.9084C89.0149 39.7987 89.536 41.4124 89.9792 43.3903C90.0013 43.4889 90.0267 43.5847 90.0598 43.6837C90.098 43.8368 90.1476 43.9912 90.2094 44.144C90.3838 44.62 90.6238 45.0966 90.8931 45.5654C90.9453 45.6533 90.9971 45.7426 91.0508 45.8239Z" fill="url(#paint1_linear_1033_26110)"/>
<path d="M37.0535 61.1738C37.3148 61.7613 37.4915 62.2303 37.5988 62.6082C37.495 62.3042 37.351 61.9451 37.1668 61.5309C36.7507 60.5957 36.2826 60.0682 35.8601 59.7776C35.1206 59.2629 34.5143 59.4701 34.5143 59.4701L22.9885 61.8504L22.8125 61.5077L34.4005 59.1121C34.4005 59.1121 35.0068 58.9048 35.7463 59.4196C36.1693 59.7111 36.6373 60.2386 37.0535 61.1738Z" fill="#9291A5"/>
<path d="M37.1656 61.53C37.3493 61.9432 37.4924 62.3028 37.5977 62.6073C37.6001 62.6119 37.6025 62.6166 37.6002 62.6237C37.9433 63.891 37.4476 64.11 36.5803 64.1698C35.8989 64.2192 29.7822 65.1159 25.0289 65.8248L22.9883 61.8513L34.5151 59.4706C34.5151 59.4706 35.1214 59.2634 35.8608 59.7781C36.2814 60.0673 36.7495 60.5948 37.1656 61.53Z" fill="url(#paint2_linear_1033_26110)"/>
<path d="M84.0293 38.7174L38.5757 64.8715C38.5757 64.8715 39.4729 63.4358 38.0136 60.5942C37.6102 59.8087 37.1741 59.2648 36.7585 58.895L81.3362 33.4734C81.3362 33.4734 83.754 35.4405 84.0293 38.7174Z" fill="url(#paint3_linear_1033_26110)"/>
<path d="M78.8319 40.962L75.8234 42.6975C75.7692 42.865 75.8234 42.6975 75.8234 42.6975C75.6397 40.4847 74.1238 38.8838 73.7023 38.4909L76.6889 36.7868C76.6884 36.7882 78.611 38.353 78.8319 40.962Z" fill="#718091"/>
<path d="M74.5845 43.3224L73.2772 44.0754C73.0522 41.6873 71.4535 40.168 71.1351 39.8926L72.44 39.1467C72.44 39.1467 74.3593 40.7144 74.5845 43.3224Z" fill="#718091"/>
<path d="M81.3363 33.4735L36.7585 58.895C35.683 57.9294 34.7284 58.1131 34.7284 58.1131L19.625 61.3498L22.0407 60.0051L65.7204 35.6683L81.3363 33.4735Z" fill="url(#paint4_linear_1033_26110)"/>
<path d="M38.0132 60.5934C39.472 63.434 38.5753 64.8706 38.5753 64.8706L25.4396 66.6234L22.7226 66.9859L22.3058 66.2297C23.1135 66.1095 24.0406 65.9741 25.0299 65.8234C29.7832 65.1145 35.8999 64.2178 36.5813 64.1683C37.7111 64.0898 38.208 63.7483 37.0538 61.1724C36.6377 60.2372 36.1696 59.7097 35.7472 59.4191C35.0077 58.9044 34.4014 59.1116 34.4014 59.1116L22.8124 61.5077L20.0298 62.0825L19.625 61.3497L34.7284 58.1131C34.7284 58.1131 36.5568 57.7574 38.0132 60.5934Z" fill="url(#paint5_linear_1033_26110)"/>
<path d="M58.7578 61.0751L90.2108 44.1426C90.1499 43.9893 90.0999 43.8363 90.0612 43.6823L58.7578 61.0751Z" fill="#ABB5CA"/>
<path d="M75.6791 54.0878L91.0517 45.824C90.9976 45.7417 90.9462 45.6533 90.8944 45.564L75.6791 54.0878Z" fill="#ABB5CA"/>
<path d="M88.4352 38.1693C88.4352 38.1693 88.5415 38.4318 88.7046 38.9089L51.1695 60.3493C50.548 66.6542 55.9633 71.0717 56.3952 71.4154C49.7333 67.5057 50.6156 59.7333 50.6156 59.7333L88.4352 38.1693Z" fill="url(#paint6_linear_1033_26110)"/>
<path d="M26.2862 62.9455C26.2862 62.9455 25.9935 63.1135 26.169 63.4553C26.3445 63.797 26.6402 64.3728 26.6402 64.3728L27.0714 63.8686L27.8158 64.0389L27.3561 63.1438C27.3561 63.1438 27.2473 62.8672 27.419 62.7459L26.2862 62.9455Z" fill="#749DED"/>
<path d="M29.5483 62.394L23.82 63.4711L23.7051 63.2473L29.5483 62.394Z" fill="url(#paint7_linear_1033_26110)"/>
<path d="M39.5262 51.9535C38.8755 52.3634 38.4655 52.7076 38.2693 52.9941C37.5904 53.2103 36.8524 53.5242 36.1189 53.9139C36.2955 53.6635 36.6475 53.3774 37.1852 53.0457C37.9388 52.5818 38.6977 52.2322 39.5262 51.9535Z" fill="#545F68"/>
<path d="M40.8393 51.8967C40.8385 51.909 40.8381 51.9222 40.8471 51.9235C40.8468 51.928 40.8454 51.9324 40.8441 51.9363C40.8419 51.943 40.8403 51.9481 40.846 51.9489C40.4317 52.1901 40.1004 52.4146 39.8529 52.6198C39.7672 52.6887 39.7002 52.7456 39.6431 52.8033L39.5972 52.7996C39.4159 52.7449 39.1125 52.767 38.6772 52.8793C38.7974 52.6484 39.1224 52.3608 39.6326 52.0266C39.6988 51.982 39.7927 51.9266 39.8679 51.8833L39.943 51.84C40.5084 51.7011 40.8014 51.7281 40.8393 51.8967Z" fill="#545F68"/>
<path d="M38.1955 54.0046C38.2812 53.9239 38.3871 53.8317 38.5287 53.7305C38.5133 53.7377 38.4976 53.7448 38.4819 53.7519L38.4607 53.7615C38.4366 53.7723 38.4123 53.7833 38.3881 53.7945C37.8737 54.0255 37.3608 54.2203 36.9147 54.3441C36.8861 54.367 36.8486 54.3887 36.811 54.4104C36.7171 54.4657 36.6509 54.5103 36.5847 54.555C36.0745 54.8892 35.7678 55.1662 35.6668 55.386C35.8905 55.3173 36.124 55.2376 36.3846 55.1345C36.8599 54.9497 37.3564 54.716 37.8459 54.4433C37.8784 54.3308 38.004 54.1775 38.1955 54.0046Z" fill="#545F68"/>
<path d="M41.4516 52.9595C41.9928 52.755 42.5354 52.5 43.0718 52.1937C43.1004 51.9672 42.8092 51.9275 42.1896 52.0741L42.105 52.1176C41.9922 52.1826 41.8701 52.2477 41.7479 52.3128C41.3531 52.5179 40.9412 52.7081 40.5117 52.8849L40.5133 52.8851L40.5134 52.8851C40.6123 52.8941 40.6942 52.9016 40.7756 52.9222C40.8733 52.969 40.9254 53.0381 40.8933 53.1492C41.0878 53.0907 41.2836 53.0209 41.4516 52.9595Z" fill="#545F68"/>
<path d="M38.353 53.3582C38.227 53.3211 38.1839 53.2533 38.1976 53.1528C38.0022 53.2118 37.7979 53.2812 37.5734 53.3622C37.0516 53.5674 36.5457 53.8012 36.0378 54.0845C36.0245 54.1718 36.0769 54.2277 36.1862 54.2509C36.3317 54.3028 36.5982 54.2759 36.969 54.1837L37.0629 54.1284C37.1035 54.1106 37.1515 54.0827 37.1881 54.0615L37.1882 54.0615L37.2034 54.0527C37.6728 53.8033 38.1411 53.5794 38.6078 53.3941C38.4978 53.3974 38.4066 53.3886 38.353 53.3582Z" fill="#545F68"/>
<path d="M36.5162 54.447C35.8655 54.8569 35.4555 55.2012 35.2593 55.4877C34.8243 55.575 34.459 55.5532 34.5337 55.3054C34.6183 55.0584 34.9711 54.7483 35.5945 54.3477C35.6415 54.5318 35.9619 54.5613 36.5162 54.447Z" fill="#545F68"/>
<path d="M38.7335 54.6914C38.4653 54.7428 38.253 54.7619 38.098 54.7469C37.9335 54.7319 37.8447 54.6723 37.8216 54.5812C37.0792 54.9837 36.3502 55.2966 35.6525 55.5247C35.726 55.7094 36.1023 55.7067 36.7621 55.5134C37.3659 55.3406 38.0385 55.059 38.7335 54.6914Z" fill="#545F68"/>
<path d="M42.4224 51.1535C42.7682 51.0079 43.123 50.8754 43.4577 50.7662C43.3918 50.5823 43.0437 50.5753 42.3665 50.767C41.7819 50.9287 41.1281 51.1983 40.4236 51.5659C40.9695 51.4631 41.2697 51.5041 41.2889 51.6966C41.6545 51.5017 42.0297 51.3209 42.4224 51.1535Z" fill="#545F68"/>
<path d="M43.4227 50.9155C43.3723 51.0254 43.2751 51.1439 43.1032 51.2926C42.8934 51.4761 42.6181 51.6802 42.232 51.9115C41.9537 51.987 41.6279 52.0975 41.2915 52.2313C41.0577 52.3241 40.8338 52.4178 40.5898 52.5348C40.8556 52.3309 41.0467 52.157 41.1741 51.991C41.1939 51.9673 41.2052 51.9425 41.2164 51.9179L41.2201 51.9097C41.2214 51.9068 41.2228 51.904 41.2241 51.9011C41.2271 51.8948 41.2302 51.8886 41.2335 51.8824C41.2341 51.8817 41.2347 51.8809 41.2352 51.8801L41.236 51.8789L41.2369 51.8776C41.2381 51.8757 41.2392 51.8738 41.2403 51.8718C41.2456 51.8626 41.2519 51.8517 41.2723 51.8353C41.5635 51.6715 41.8921 51.511 42.1912 51.374C42.6225 51.1845 43.0516 51.0209 43.4227 50.9155Z" fill="#545F68"/>
<path d="M39.393 54.3078C39.9502 53.9518 40.2743 53.6647 40.4138 53.4227C40.0237 53.526 39.7289 53.5626 39.5464 53.5333C39.5015 53.5291 39.4462 53.5232 39.4196 53.5085C39.1429 53.763 38.7638 54.0334 38.2642 54.3302C38.27 54.4065 38.3131 54.4625 38.4125 54.4966C38.5758 54.5369 38.8245 54.5216 39.1953 54.4294L39.2521 54.3967C39.2775 54.3815 39.2972 54.3684 39.3166 54.3556C39.3396 54.3404 39.3622 54.3255 39.393 54.3078Z" fill="#545F68"/>
<path d="M42.9724 52.3749C42.7771 52.6491 42.349 52.979 41.7281 53.3405L41.7088 53.3516C41.0315 53.7467 40.338 54.0639 39.6403 54.292C40.2351 53.9144 40.6348 53.5825 40.8216 53.3079C41.1653 53.2 41.5394 53.0564 41.9137 52.8878C42.2782 52.7302 42.6341 52.5605 42.9724 52.3749Z" fill="#545F68"/>
<path d="M43.533 51.919C44.0818 51.5626 44.4446 51.2284 44.5191 51.0056C44.5743 50.7938 44.3299 50.7205 43.8101 50.8254C43.722 50.957 43.5963 51.0985 43.3873 51.2697C43.1975 51.4299 42.9418 51.6097 42.6301 51.81C43.1665 51.7073 43.4865 51.7358 43.533 51.919Z" fill="#545F68"/>
<path d="M40.4301 53.2463C40.4317 53.2466 40.4328 53.2471 40.4334 53.2479C40.4339 53.2484 40.4342 53.249 40.4344 53.2497C40.4346 53.2502 40.4347 53.2508 40.4349 53.2514C40.4358 53.255 40.4369 53.2594 40.4482 53.2607C39.9952 53.3454 39.7312 53.2964 39.7371 53.1691C39.7499 53.1675 39.7627 53.1657 39.7755 53.164L39.796 53.1612L39.8204 53.1577C39.8481 53.1539 39.8758 53.15 39.9036 53.1464C40.2167 53.0991 40.38 53.1395 40.4301 53.2463Z" fill="#545F68"/>
<path d="M40.0141 52.9405C40.3946 52.8232 41.0771 52.5425 41.7153 52.2076C41.3984 52.3053 41.0625 52.44 40.6896 52.609C40.4366 52.7247 40.2209 52.832 40.0141 52.9405Z" fill="#545F68"/>
<path d="M40.7547 52.1437C40.6463 52.3118 40.1804 52.6883 39.8221 52.909C39.8519 52.8606 39.9192 52.7905 39.9866 52.7204C40.1865 52.5361 40.443 52.344 40.7547 52.1437Z" fill="#545F68"/>
<path d="M39.3263 53.1186C39.2919 53.0771 39.2383 53.0467 39.1564 53.026C39.0386 53.0025 38.8828 52.9997 38.6608 53.0439C38.7007 53.1749 38.9931 53.1892 39.3263 53.1186Z" fill="#545F68"/>
<path d="M38.9935 53.3795C38.4775 53.6492 37.9629 53.8685 37.4601 54.0391C37.6942 53.9213 38.0689 53.7395 38.3502 53.6258C38.5934 53.5211 38.808 53.4393 38.9935 53.3795Z" fill="#545F68"/>
<path d="M38.3549 54.1345C38.8173 53.8344 39.1226 53.5569 39.2217 53.4007C39.0054 53.5461 38.8159 53.6813 38.6721 53.8084C38.5202 53.9337 38.4235 54.039 38.3549 54.1345Z" fill="#545F68"/>
</g>
<defs>
<linearGradient id="paint0_linear_1033_26110" x1="34.8199" y1="61.8265" x2="42.5102" y2="86.0412" gradientUnits="userSpaceOnUse">
<stop stop-color="#8FAFFF"/>
<stop offset="0.5478" stop-color="#4982EB"/>
<stop offset="1" stop-color="#0D5ADA"/>
</linearGradient>
<linearGradient id="paint1_linear_1033_26110" x1="102.108" y1="71.7397" x2="53.7688" y2="43.9212" gradientUnits="userSpaceOnUse">
<stop offset="0.00121702" stop-color="#C2D5E4"/>
<stop offset="1" stop-color="#E4E2F1"/>
</linearGradient>
<linearGradient id="paint2_linear_1033_26110" x1="24.923" y1="65.6196" x2="36.2822" y2="59.786" gradientUnits="userSpaceOnUse">
<stop stop-color="#D7DFFF"/>
<stop offset="1" stop-color="#CCD0D3"/>
</linearGradient>
<linearGradient id="paint3_linear_1033_26110" x1="60.9625" y1="50.5234" x2="59.4127" y2="47.5056" gradientUnits="userSpaceOnUse">
<stop stop-color="#132534"/>
<stop offset="1" stop-color="#354249"/>
</linearGradient>
<linearGradient id="paint4_linear_1033_26110" x1="20.506" y1="63.065" x2="80.6661" y2="32.1695" gradientUnits="userSpaceOnUse">
<stop stop-color="#132534"/>
<stop offset="1" stop-color="#354249"/>
</linearGradient>
<linearGradient id="paint5_linear_1033_26110" x1="22.3181" y1="66.5935" x2="37.1758" y2="58.9632" gradientUnits="userSpaceOnUse">
<stop stop-color="#132534"/>
<stop offset="1" stop-color="#354249"/>
</linearGradient>
<linearGradient id="paint6_linear_1033_26110" x1="101.213" y1="68.1177" x2="53.6207" y2="45.873" gradientUnits="userSpaceOnUse">
<stop offset="0.00121702" stop-color="#C2D5E4"/>
<stop offset="0.3123" stop-color="#A8BACF"/>
<stop offset="1" stop-color="#7283A3"/>
</linearGradient>
<linearGradient id="paint7_linear_1033_26110" x1="24.1411" y1="64.0973" x2="29.112" y2="61.5444" gradientUnits="userSpaceOnUse">
<stop offset="0.00121702" stop-color="#C2D5E4"/>
<stop offset="0.3123" stop-color="#A8BACF"/>
<stop offset="1" stop-color="#7283A3"/>
</linearGradient>
<clipPath id="clip0_1033_26110">
<rect width="84.4321" height="84.4321" fill="white" transform="translate(0 38.5714) rotate(-27.183)"/>
</clipPath>
</defs>
</svg>
