<svg width="85" height="106" viewBox="0 0 85 106" fill="none" xmlns="http://www.w3.org/2000/svg">
<g clip-path="url(#clip0_7_77)">
<path fill-rule="evenodd" clip-rule="evenodd" d="M12.259 18.7814C11.6494 19.1548 10.2948 19.5281 8.39841 19.5281C3.04781 19.5281 0 15.4958 0 10.3435C0 4.22038 3.92829 0.934814 8.73705 0.934814C10.6335 0.934814 11.5817 1.30817 12.259 1.68153L11.6494 5.41513C10.9044 5.04177 10.1594 4.74308 8.87251 4.74308C6.56972 4.74308 4.13147 6.23652 4.13147 10.2688C4.13147 13.8531 6.09562 15.7945 8.94024 15.7945C10.0239 15.7945 10.8366 15.5705 11.7171 15.1225L12.259 18.7814ZM34.745 10.9409C34.745 9.97012 34.3386 8.25266 32.6454 8.25266C31.1554 8.25266 30.4781 9.67143 30.4103 10.9409H34.745ZM30.4103 13.7784C30.5458 15.4958 31.8327 16.3919 33.7968 16.3919C34.9482 16.3919 36.3705 16.0185 37.251 15.4212L37.7928 18.5574C36.4382 19.3041 34.8805 19.6028 33.255 19.6028C28.9203 19.6028 26.6175 16.7653 26.6175 12.3596C26.6175 8.10332 29.1235 5.41513 32.8486 5.41513C36.7092 5.41513 38.4024 8.55135 38.4024 12.4343C38.4024 12.8077 38.3346 13.4797 38.3346 13.8531L30.4103 13.7784ZM42.6016 19.0054L38.6056 5.93783H42.6016L44.7689 15.1972H44.8366L47.004 5.93783H51L47.004 19.0054H42.6016ZM52.0159 10.2688C52.0159 8.32734 51.9482 7.05791 51.8805 5.93783H55.2669L55.4024 8.40201H55.4701C56.0797 6.46054 57.2311 5.71382 58.3825 5.63915C58.9243 5.63915 59.2629 5.63915 59.6016 5.71382V9.52209C59.2629 9.44742 58.5856 9.37274 58.1793 9.44742C56.757 9.59676 55.9442 10.7168 55.741 11.9863C55.6733 12.2849 55.6733 12.5836 55.6733 12.8823V19.0054H52.0836L52.0159 10.2688ZM68.6095 12.509C68.6095 10.3435 67.9323 8.55135 66.239 8.55135C64.4781 8.55135 63.8685 10.4181 63.8685 12.509C63.8685 14.5998 64.5458 16.4666 66.239 16.4666C67.9323 16.4666 68.6095 14.5998 68.6095 12.509ZM72.3346 12.509C72.3346 16.7653 69.9641 19.6028 66.1713 19.6028C62.3785 19.6028 60.0079 16.7653 60.0079 12.509C60.0079 8.25266 62.3785 5.41513 66.1713 5.41513C69.9641 5.41513 72.3346 8.17799 72.3346 12.509ZM73.9601 10.1195C73.9601 8.47668 73.8924 7.05791 73.8247 5.93783H77.2111L77.2789 7.72996H77.3466C77.8207 6.90857 79.0398 5.4898 81.004 5.4898C83.3745 5.4898 84.9322 7.28193 84.9322 11.1649V19.0054H81.3426V11.7622C81.3426 10.1195 80.8008 8.92471 79.5139 8.92471C78.498 8.92471 77.8884 9.67143 77.6852 10.4181C77.6175 10.7168 77.5498 11.0902 77.5498 11.4636V19.0054H73.9601V10.1195ZM21.0637 5.56447C23.3665 5.56447 24.9243 7.3566 24.9243 11.3142V19.0801H21.3347V11.9116C21.3347 10.1941 20.7928 8.99938 19.4382 8.99938C18.1514 8.99938 17.5418 10.1941 17.5418 11.3142V19.0801H13.9522V2.42825L17.5418 1.08416V7.43127H17.6096C18.2868 6.23652 19.6414 5.56447 21.0637 5.56447Z" fill="#0269A7"/>
<path fill-rule="evenodd" clip-rule="evenodd" d="M0.0673828 53.6531V22.5149L42.5335 38.1213L0.0673828 53.6531Z" fill="#0269A7"/>
<path fill-rule="evenodd" clip-rule="evenodd" d="M0.135742 53.7278L42.5342 69.2595L85.0003 53.7278V22.5149L42.5342 38.1213L0.135742 53.7278Z" fill="#0BA3D9"/>
<path fill-rule="evenodd" clip-rule="evenodd" d="M0.0673828 89.9438V58.731L42.5335 74.3374L0.0673828 89.9438Z" fill="#81142E"/>
<path fill-rule="evenodd" clip-rule="evenodd" d="M85.0003 58.731L42.5342 74.3374L0.135742 89.9438L42.5342 105.55L85.0003 89.9438V58.731Z" fill="#D0223A"/>
</g>
<defs>
<clipPath id="clip0_7_77">
<rect width="85" height="104.615" fill="white" transform="translate(0 0.934814)"/>
</clipPath>
</defs>
</svg>
