<svg width="254" height="83" viewBox="0 0 254 83" fill="none" xmlns="http://www.w3.org/2000/svg">
<path d="M25.4707 41.111C25.4707 33.2343 31.9095 26.9081 39.9601 26.9081C42.3807 26.8911 44.7675 27.4767 46.9054 28.6121C49.0433 29.7475 50.8651 31.3969 52.2066 33.4119L46.1704 36.9134C45.4719 35.9153 44.5423 35.1011 43.4608 34.5404C42.3794 33.9796 41.1783 33.6889 39.9601 33.6931C35.8205 33.6931 32.428 37.1437 32.428 41.111C32.428 45.0783 35.8205 48.5288 39.9601 48.5288C41.2357 48.5371 42.4922 48.2183 43.6096 47.6029C44.7269 46.9874 45.6679 46.0959 46.3426 45.0133L52.3191 48.5781C50.9939 50.6519 49.1653 52.3566 47.0037 53.5332C44.842 54.7097 42.4177 55.3199 39.9566 55.3069C31.9095 55.3139 25.4707 48.8663 25.4707 41.111Z" fill="#2668B8"/>
<path d="M53.5518 41.111C53.5518 33.2906 59.9905 26.9661 68.0412 26.9661C76.1481 26.9661 82.5886 33.2941 82.5886 41.111C82.5886 48.8734 76.1481 55.3139 68.0412 55.3139C59.9905 55.3139 53.5518 48.8663 53.5518 41.111ZM75.6313 41.111C75.6313 37.2017 72.2388 33.7511 68.0412 33.7511C63.9016 33.7511 60.5091 37.2017 60.5091 41.111C60.5091 45.0783 63.9016 48.5288 68.0412 48.5288C72.2458 48.5288 75.6313 45.0783 75.6313 41.111Z" fill="#0056D2"/>
<path d="M199.665 41.3412C199.665 32.7738 206.622 26.9661 212.949 26.9661C217.26 26.9661 219.734 28.2879 221.4 30.8191L222.063 27.4793H228.53V54.7953H222.063L221.228 51.9829C219.331 54.0536 216.972 55.3227 212.949 55.3227C206.738 55.3139 199.665 49.8507 199.665 41.3412ZM221.745 41.2832C221.737 39.2786 220.933 37.3591 219.51 35.9471C218.087 34.535 216.162 33.7461 214.157 33.7538C212.152 33.7614 210.233 34.5652 208.821 35.9881C207.409 37.411 206.62 39.3366 206.628 41.3412C206.628 45.1363 210.02 48.5288 214.161 48.5288C218.354 48.5288 221.745 45.1363 221.745 41.2832Z" fill="#0056D2"/>
<path d="M191.718 30.6452V27.4811H184.646V54.7954H191.718V40.0774C191.718 35.6496 193.905 33.3504 197.695 33.3504C197.946 33.3504 198.185 33.368 198.419 33.3908L199.73 26.7974C196.044 26.8167 193.372 28.0805 191.718 30.6452Z" fill="#0056D2"/>
<path d="M120.657 30.647V27.483L113.585 27.4988L113.645 54.8095L120.716 54.7937L120.678 40.0775C120.667 35.6514 122.848 33.3469 126.642 33.3381C126.884 33.3388 127.125 33.3523 127.366 33.3786L128.67 26.7781C124.979 26.808 122.304 28.0771 120.657 30.647Z" fill="#0056D2"/>
<path d="M85.0381 44.2153V27.4829H92.1079V43.354C92.1079 46.8607 94.0626 48.9314 97.4551 48.9314C101.25 48.9314 103.432 46.6305 103.432 42.2026V27.4829H110.505V54.7954H103.437V51.6314C101.77 54.2188 99.067 55.4844 95.3299 55.4844C89.0054 55.4862 85.0381 50.8861 85.0381 44.2153Z" fill="#0056D2"/>
<path d="M153.898 41.1426C153.914 33.4945 159.388 26.9503 168.07 26.9661C176.12 26.9819 181.8 33.4312 181.78 41.0284C181.782 41.7795 181.723 42.5296 181.605 43.2713L160.791 43.2326C161.589 46.5109 164.287 48.8734 168.37 48.8822C170.842 48.8822 173.489 47.9716 175.103 45.9045L179.926 49.7716C177.446 53.2749 173.071 55.3368 168.416 55.328C160.198 55.2998 153.884 49.1353 153.898 41.1426ZM174.661 38.3056C174.264 35.5458 171.394 33.4119 168.001 33.4066C164.723 33.4066 162.076 35.3507 161.035 38.281L174.661 38.3056Z" fill="#0056D2"/>
<path d="M128.713 48.8419L134.999 45.5513C136.038 47.8031 138.115 49.1302 141.06 49.1302C143.772 49.1302 144.811 48.2654 144.811 47.0525C144.811 42.658 129.92 45.3211 129.92 35.2753C129.92 29.7348 134.768 26.7922 140.77 26.7922C145.329 26.7922 149.369 28.8119 151.562 32.563L145.333 35.8589C144.41 34.0115 142.679 32.9726 140.485 32.9726C138.351 32.9726 137.31 33.7232 137.31 34.9923C137.31 39.2637 152.2 36.5515 152.2 46.7695C152.2 52.0797 147.873 55.3106 140.889 55.3106C134.944 55.3053 130.789 53.3436 128.713 48.8419Z" fill="#0056D2"/>
<path d="M25.4707 41.111C25.4707 33.2343 31.9095 26.9081 39.9601 26.9081C42.3807 26.8911 44.7675 27.4767 46.9054 28.6121C49.0433 29.7475 50.8651 31.3969 52.2066 33.4119L46.1704 36.9134C45.4719 35.9153 44.5423 35.1011 43.4608 34.5404C42.3794 33.9796 41.1783 33.6889 39.9601 33.6931C35.8205 33.6931 32.428 37.1437 32.428 41.111C32.428 45.0783 35.8205 48.5288 39.9601 48.5288C41.2357 48.5371 42.4922 48.2183 43.6096 47.6029C44.7269 46.9874 45.6679 46.0959 46.3426 45.0133L52.3191 48.5781C50.9939 50.6519 49.1653 52.3566 47.0037 53.5332C44.842 54.7097 42.4177 55.3199 39.9566 55.3069C31.9095 55.3139 25.4707 48.8663 25.4707 41.111Z" fill="#0056D2"/>
</svg>
