<svg width="88" height="109" viewBox="0 0 88 109" fill="none" xmlns="http://www.w3.org/2000/svg">
<g clip-path="url(#clip0_7_73)">
<path d="M32.6718 0.705078V5.18692H30.0348V3.23676V2.74677H22.7204V6.15385H20.3783V4.78839V4.30493H4.56688V14.1179L4.93048 14.2126C6.57909 14.6993 7.81295 15.3115 7.88507 21.5299V66.0957C7.87073 68.8322 7.89057 71.7584 9.09377 74.8863C8.18178 75.0643 7.6017 75.5406 7.59026 76.1864C7.59044 76.1956 7.59642 76.2035 7.59682 76.2126V76.2812C7.59682 78.0101 7.00542 79.0425 6.8991 79.2407C6.45812 79.1507 6.041 79.1035 5.66092 79.1035C4.32356 79.1117 3.34783 79.5956 3.26313 80.4167L3.23693 80.4133C3.04406 81.6544 2.41732 84.7258 1.3993 86.1006C0.976669 86.6676 0.790039 87.1457 0.790039 87.5738C0.796748 88.2963 1.31238 88.7315 1.73669 89.0928C2.37232 89.6397 5.06025 91.185 8.39604 91.1933C8.82158 91.1933 9.26414 91.138 9.7063 91.0822C9.35407 91.7444 9.06964 92.2357 9.07082 92.2386C8.88466 92.6534 8.71369 93.0647 8.71704 93.64C8.71704 94.0765 8.81149 94.6035 9.0446 95.3093C10.6228 99.2815 21.0062 107.588 42.5703 107.608C43.0734 107.603 43.577 107.602 44.0902 107.595C44.59 107.602 45.1021 107.605 45.6035 107.605C67.1697 107.59 77.5494 99.2828 79.1259 95.3223C79.3623 94.6048 79.46 94.0748 79.46 93.6433C79.46 93.0629 79.2903 92.6592 79.1226 92.2746C79.1137 92.2603 78.8189 91.7557 78.4609 91.079C78.9044 91.136 79.3493 91.1933 79.7777 91.1933C83.1085 91.1866 85.803 89.6364 86.447 89.0928C86.8646 88.7315 87.3772 88.2996 87.3805 87.5771C87.3805 87.1489 87.1988 86.6693 86.7778 86.0973C85.7598 84.7208 85.1314 81.6528 84.9402 80.4101L84.9074 80.4166C84.8265 79.5982 83.8504 79.1132 82.5162 79.1067C82.1351 79.1067 81.7202 79.1517 81.278 79.2406C81.162 79.0471 80.5737 77.9991 80.5737 76.2582C80.5737 76.2508 80.573 76.2406 80.5737 76.2321C80.5746 76.2162 80.5867 76.2023 80.5868 76.1863C80.5739 75.5394 79.9924 75.0646 79.0735 74.8895C80.2782 71.7602 80.2965 68.8331 80.2822 66.0957V21.5299C80.3526 15.3115 81.5949 14.696 83.2368 14.2126L83.6036 14.1179V4.30174H67.802V6.15388H65.4501V2.7468H58.1357V5.187H55.5021V0.705161H46.3303V2.55413H41.846V1.18867V0.705212H32.6709L32.6718 0.705078ZM33.6446 1.67853H40.8739V3.04071V3.52417H47.3072V1.67855H54.5299V6.15387H59.1092V3.72019H64.4812V7.12075H68.7789V5.27178H82.6282L82.6348 13.3763C80.7362 13.9617 79.2444 15.6593 79.3132 21.5298V66.0956C79.2847 71.5531 79.3728 77.0525 70.3314 83.9999C62.0967 90.3036 48.1749 95.7256 44.071 96.7659C39.9285 95.7005 26.0536 90.2852 17.8424 83.9999C8.79437 77.0523 8.8908 71.5529 8.86062 66.0956V21.5298C8.9277 15.6626 7.44257 13.965 5.54243 13.3763V5.27178H19.4017V6.63724V7.1207H23.6894V3.72014H29.0648V5.67029V6.15375H33.6441V1.67843L33.6446 1.67853ZM9.88987 11.3575V34.0318H42.1879V33.7934V11.3582H9.88987V11.3575ZM45.9866 11.3575V34.0352H46.2323H78.2838V11.3575H45.9857H45.9866ZM46.4714 11.841H77.7967V33.5486H46.4714V11.841ZM10.3747 11.8443H41.7V33.5452H10.3747V11.8443ZM11.3049 12.772V32.6231H40.7686V12.772H11.3049ZM47.405 12.772V32.6231H76.8754V12.772H47.405ZM42.8748 28.4878V34.8119H36.7264V37.0006V37.2423H42.7733V53.8139H45.2563H45.5085V37.2456L51.5554 37.2423V35.0536V34.8119H45.4102V28.4878H45.1678H43.1172H42.8748H42.8748ZM43.353 28.9712H44.9188V35.2922H51.0639V36.7589H45.0139V53.3272H43.2581V36.7589H37.208H37.2047V35.2922L43.353 35.2955V28.9714L43.353 28.9712ZM41.9445 33.5446V33.7928V33.5446ZM9.88965 38.2159V65.5147C9.88126 65.8442 9.87655 66.1768 9.87655 66.498C9.86313 74.1631 12.1197 77.1515 15.7104 80.8645C20.668 85.9741 35.1617 93.9399 41.9121 94.7477L42.184 94.7771V87.5546H45.9837H45.987V94.7771L46.2622 94.7477C53.0176 93.9399 67.5097 85.9741 72.4639 80.8645C76.0596 77.1482 78.3112 74.1646 78.2978 66.5045C78.2978 66.1783 78.2963 65.8477 78.2879 65.5082V38.2161H45.9865V54.3695H42.1834V38.2161H9.88874L9.88965 38.2159ZM10.3712 38.7059H41.6998V54.856H46.4724V54.6111V38.7058H77.8011V65.5145C77.8095 65.8557 77.8091 66.1832 77.8142 66.5043C77.7991 74.0741 75.6768 76.8083 72.1113 80.528C67.3734 85.4552 53.1296 93.2967 46.4731 94.2316V87.0712H41.7005V94.2316C35.0591 93.2983 20.8035 85.4552 16.0623 80.528C12.4951 76.8083 10.3728 74.076 10.3594 66.4978C10.3594 66.1817 10.3641 65.8539 10.3725 65.5211V38.7056L10.3712 38.7059ZM11.5045 39.6271L22.2323 57.8709V44.69H30.6212V72.1761L40.7692 89.398V86.9186H40.0911V54.9017H40.7692V39.6269H11.505L11.5045 39.6271ZM47.405 39.6271V54.9018H48.0864V86.9188H47.405V89.3981L57.5562 72.1762V44.6901H65.9418V57.8711L76.676 39.6273H47.4052L47.405 39.6271ZM11.305 41.5642V64.9242C11.1121 73.2935 13.0743 76.4045 16.9652 80.1108C20.9518 83.9024 33.4965 91.4933 40.7988 93.3765V91.8086C40.7988 91.8086 31.0135 75.1961 30.9196 74.9847C30.7804 74.6987 30.6248 74.8982 30.6248 75.1742V75.9941H22.2358V60.1086L11.305 41.5637L11.305 41.5642ZM76.8771 41.5642L65.9431 60.109V75.9946H57.5575V75.1747C57.5575 74.8987 57.3969 74.6992 57.2594 74.9852C57.1655 75.196 47.3833 91.8091 47.3833 91.8091V93.377C54.6838 91.4938 67.2304 83.9029 71.2136 80.1113C75.1078 76.405 77.0684 73.294 76.8772 64.9247V41.5647L76.8771 41.5642ZM23.1605 45.6083V75.0931H29.6986V74.8514V45.6091H23.1605V45.6083ZM58.4824 45.6083V75.0931H58.7248H65.0206V45.6083H58.4825H58.4824ZM58.9672 46.0885H64.5326V74.6099H58.9672V46.0885ZM23.6453 46.0919H29.2107V74.6099H23.6453V46.0919ZM46.2345 54.3695V54.6112V54.3695ZM40.8756 55.6859V86.1408H47.4105V85.899V55.6867H40.8756V55.6859ZM46.9191 56.1694V85.6542H41.3636V56.1727L46.9191 56.1694ZM29.4569 74.6089V74.8506V74.6089ZM9.29117 75.3465C9.61415 76.1159 10.0147 76.8977 10.5032 77.6918C10.2174 77.4961 9.85931 77.349 9.43198 77.2904C8.47686 77.0362 8.09028 76.5545 8.0824 76.2183V76.1922H8.07584C8.07587 76.1913 8.0758 76.1899 8.07584 76.1889C8.06095 75.8756 8.43292 75.4856 9.2911 75.3461L9.29117 75.3465ZM78.8817 75.3498C79.7362 75.4882 80.1068 75.8704 80.097 76.1828H80.0936C80.0919 76.1954 80.0908 76.2086 80.0903 76.222C80.078 76.5546 79.6875 77.0387 78.7079 77.2967C78.2963 77.352 77.9472 77.4998 77.6663 77.6953C78.1552 76.9007 78.5583 76.1196 78.8816 75.3499L78.8817 75.3498ZM8.00649 77.0608C8.30488 77.3585 8.75033 77.6064 9.34296 77.7631C10.2167 77.8785 10.6569 78.3666 10.6368 78.681C10.6368 78.6869 10.6306 78.6946 10.6303 78.7006L10.627 78.6973C10.6271 78.6974 10.6081 78.7662 10.6073 78.7692C10.5386 79.0631 10.1149 79.4508 8.8155 79.4584C8.42178 79.4584 7.93375 79.4058 7.39387 79.318C7.56494 79.0019 7.87034 78.2977 8.00653 77.0617L8.00649 77.0608ZM80.1647 77.0675C80.3049 78.3013 80.6125 79.0016 80.7838 79.3182C80.2451 79.4038 79.7569 79.4554 79.3589 79.4554C78.0382 79.4492 77.6238 79.046 77.5639 78.7531C77.5634 78.7514 77.5476 78.7008 77.5474 78.7008H77.5441C77.5437 78.6948 77.5376 78.6871 77.5376 78.6812C77.5208 78.3668 77.9616 77.8801 78.8052 77.7731C79.4108 77.6125 79.862 77.3642 80.1646 77.0675L80.1647 77.0675ZM77.0659 78.6159C77.0637 78.6384 77.0503 78.6583 77.0495 78.6812C77.0513 78.7348 77.0857 78.7771 77.0953 78.8282L77.0789 78.8347H77.0755C77.0832 78.8456 77.8164 81.3933 78.1139 82.1928C77.8688 82.1985 77.6363 82.2189 77.39 82.2189C76.1544 82.2189 75.0363 82.139 74.1275 82.0327C75.3256 80.8699 76.2878 79.7297 77.0658 78.6158L77.0659 78.6159ZM11.1113 78.6289C11.8881 79.7393 12.8487 80.8738 14.043 82.0328C13.132 82.1388 12.0162 82.2223 10.787 82.2223C10.5398 82.2223 10.3086 82.2019 10.0631 82.1961C10.3542 81.4071 11.0918 78.8456 11.0949 78.8347L11.0785 78.8314C11.0886 78.7793 11.1225 78.7357 11.1244 78.6811C11.1238 78.6628 11.1127 78.6469 11.1113 78.6288L11.1113 78.6289ZM5.66405 79.5926C6.01457 79.5926 6.40274 79.6297 6.82034 79.7167C7.60188 79.8756 8.26007 79.9421 8.81528 79.9421C9.46991 79.9421 9.96787 79.8304 10.3483 79.6546C10.0791 80.5795 9.7103 81.8205 9.56271 82.1801C8.58377 82.14 7.64995 82.0664 6.96837 81.9142C4.53654 81.6483 3.69999 80.8622 3.74192 80.4742C3.7436 80.1246 4.38003 79.5955 5.66474 79.5922L5.66405 79.5926ZM82.5165 79.5926C83.8012 79.5926 84.4328 80.1234 84.4328 80.4713C84.4798 80.861 83.6408 81.651 81.2359 81.9119C80.535 82.0663 79.5962 82.1365 78.6187 82.1765C78.4689 81.8186 78.101 80.5794 77.8293 79.6546C78.209 79.8291 78.7052 79.9421 79.359 79.9421C79.9158 79.9421 80.5739 79.8755 81.3605 79.72C81.7815 79.633 82.1696 79.5926 82.5168 79.5926L82.5165 79.5926ZM3.58442 81.203C4.07788 81.7578 5.14247 82.1811 6.88634 82.3921C7.89932 82.6179 9.3502 82.7057 10.7908 82.7057C12.2196 82.7057 13.5336 82.605 14.5022 82.4639C15.1814 83.0961 15.9367 83.7347 16.7624 84.3815C15.9606 84.0252 15.1908 83.8392 14.5055 83.8392C13.0924 83.8392 11.9838 84.5538 11.7606 85.6751L11.7147 85.6653C11.3583 87.5716 10.5947 89.3323 9.972 90.5749C9.43479 90.6612 8.90628 90.7121 8.39314 90.7121C5.22674 90.7188 2.56481 89.1826 2.05161 88.726C1.61388 88.3614 1.27178 88.0311 1.28184 87.5762C1.28184 87.2952 1.40375 86.9106 1.79284 86.3871C2.75538 85.059 3.31128 82.681 3.58468 81.203L3.58442 81.203ZM84.5911 81.203C84.8664 82.6812 85.4225 85.0595 86.3862 86.3871C86.7719 86.9106 86.8972 87.2951 86.8972 87.5795C86.9056 88.0327 86.5651 88.3614 86.1307 88.7261C85.6124 89.1826 82.9472 90.7155 79.7824 90.7122C79.2652 90.7122 78.7351 90.6605 78.2003 90.5717C77.5787 89.3228 76.8249 87.5645 76.4708 85.6652L76.4184 85.6751C76.1952 84.5538 75.0884 83.8392 73.6767 83.8392C72.9873 83.8392 72.2155 84.0277 71.4132 84.3847V84.3782C72.2365 83.7331 72.986 83.0944 73.6636 82.464C74.6312 82.604 75.9522 82.7057 77.3913 82.7057C78.8286 82.7057 80.2824 82.618 81.3155 82.3888C83.0389 82.1826 84.099 81.7595 84.5911 81.2031L84.5911 81.203ZM14.5058 84.3223C15.1272 84.3223 15.8457 84.4915 16.6088 84.8351L14.8203 89.526C12.9329 88.2482 12.1902 86.993 12.1964 86.0928C12.2015 85.0609 13.0752 84.334 14.5058 84.3223V84.3223ZM73.6764 84.3223C75.1003 84.3373 75.9825 85.0608 75.9825 86.0928C75.9873 86.9962 75.244 88.2565 73.3455 89.539L71.58 84.8285C72.3388 84.4885 73.0571 84.3222 73.6764 84.3222V84.3223ZM71.0101 84.7012L72.9264 89.8298C61.8046 97.1718 48.3633 97.6894 44.9268 97.6861C44.5782 97.6861 44.5196 97.6802 44.3896 97.6762C48.7257 96.5533 62.5043 91.1912 70.9184 84.7731C70.9507 84.7486 70.978 84.7257 71.0101 84.7012L71.0101 84.7012ZM17.1778 84.711C17.2047 84.7315 17.2262 84.7526 17.2532 84.7731C25.65 91.1737 39.3744 96.5319 43.7467 97.6796C43.6071 97.6834 43.5669 97.6861 43.2488 97.6861C39.8112 97.6894 26.3568 97.1718 15.2324 89.8136L17.1796 84.7091L17.1778 84.711ZM47.1698 85.6551V85.9001V85.6551ZM76.2897 87.0238C77.1191 90.0174 78.6878 92.4869 78.6907 92.4986C78.8433 92.8549 78.9706 93.1602 78.9757 93.6452C78.9757 94.0065 78.8942 94.4819 78.6678 95.1609C77.2875 98.7669 67.0305 107.138 45.5999 107.123C45.1001 107.123 44.5931 107.119 44.0866 107.11C43.5684 107.119 43.0665 107.123 42.5667 107.123C21.1431 107.143 10.8858 98.7654 9.50557 95.1511C9.28251 94.4837 9.20421 94.0082 9.20421 93.6419C9.20421 93.1569 9.33466 92.8556 9.49901 92.4659C9.49165 92.4835 11.0557 90.0207 11.8869 87.0302C12.2486 88.0164 13.1821 89.0884 14.8284 90.1368C26.1205 97.6648 39.7438 98.1694 43.2439 98.1694C43.789 98.1694 44.0889 98.1563 44.0923 98.1563C44.0755 98.1563 44.3708 98.1694 44.9243 98.1694C48.4228 98.1694 62.0578 97.6681 73.3566 90.1334C74.9979 89.0826 75.9279 88.0107 76.2882 87.0235L76.2897 87.0238ZM14.4693 91.4043C13.8938 91.3736 13.3937 91.9603 13.4276 92.5084C13.4562 93.0102 13.5401 92.8657 13.7028 92.6032C13.8671 92.3456 14.3634 92.218 14.8296 92.4823C15.2992 92.7532 15.7776 92.4244 15.999 92.038C16.1483 91.7403 16.1782 91.708 15.7992 91.9204C15.4269 92.1278 15.3878 91.9684 15.0524 91.6656C14.8608 91.4942 14.6611 91.4145 14.4693 91.4043L14.4693 91.4043ZM74.9212 92.577C74.8633 92.6019 74.8148 92.6561 74.8098 92.7306C74.7645 93.2624 74.3675 93.9394 73.742 94.4195L73.6994 94.4391C73.6759 94.4491 73.6253 94.5217 73.7125 94.6187C74.1636 95.0134 74.5404 96.6125 74.5052 96.7028C74.4582 96.7965 74.5604 96.8706 74.7214 96.8204C74.7214 96.8204 75.699 96.6064 76.1921 96.9576C76.1921 96.9576 76.435 97.1898 76.4836 96.7616C76.539 96.3251 77.1473 95.4944 77.4106 95.3472C77.4106 95.3472 77.6439 95.1093 77.3353 94.9454C77.0938 94.8166 76.5242 93.3798 76.5393 93.1389C76.5712 93.0369 76.5841 92.8683 76.3493 92.9168C75.8345 93.0121 75.1787 92.6752 75.0915 92.5966C75.0479 92.5565 74.979 92.5522 74.9212 92.577L74.9212 92.577ZM17.2835 92.9429C17.1611 92.9613 16.9748 93.0258 16.8347 93.0409C16.8347 93.0409 16.1769 93.1259 15.5245 92.9821C15.288 92.9336 15.2779 92.9504 15.1773 93.2565C14.7479 94.3252 13.8796 95.9591 13.7622 96.0527C13.6481 96.1447 13.5854 96.1268 13.582 96.1703C13.5787 96.2088 13.6307 96.246 13.7196 96.2945C14.1842 96.4232 15.0489 96.1282 15.2854 95.4157C15.3541 95.2502 15.439 95.3164 15.4524 95.4451C15.4038 95.9804 16.0612 96.236 16.5006 96.0821C16.9618 95.8664 16.7196 95.8567 16.5989 95.8567C16.3708 95.7815 16.3468 95.7192 16.3401 95.5954C16.3954 94.918 16.0413 94.9609 15.721 94.9943C15.4644 95.0261 15.4958 94.8761 15.531 94.7624C15.8312 94.3827 15.9977 93.9167 16.1403 93.4852C16.2459 92.9332 16.4914 93.2218 16.4646 93.5178C16.6977 94.8391 17.4908 94.7888 18.0795 94.2201C18.4283 93.8003 18.1563 93.9738 18.0238 94.0307C17.5542 94.1779 17.0926 93.6863 17.3392 93.116C17.4625 92.9521 17.4059 92.9245 17.2835 92.9429ZM14.3584 92.9723C13.976 93.0198 13.8275 93.2706 13.6476 93.4851C13.6476 93.4851 13.5782 93.6563 13.3266 93.5995C13.0599 93.5393 12.533 93.6874 12.4291 94.2561C12.3502 94.711 12.4402 94.6217 12.5928 94.5631C12.9434 94.4126 13.0014 94.639 12.9695 94.8179C12.9695 94.8179 12.7073 95.5764 12.298 95.8992C12.1941 95.9477 12.1529 96.0514 12.3341 96.1082C12.5135 96.1551 13.1929 96.2511 13.3757 95.9416C13.6591 95.388 14.4768 93.61 14.9447 93.2303C15.0756 93.125 15.028 93.0385 14.8301 93.0017C14.6406 92.9636 14.4859 92.9564 14.3584 92.9723L14.3584 92.9723ZM71.0234 93.3872C70.6908 93.3918 70.4118 93.5753 70.3552 93.9817C70.3417 94.1071 70.1557 94.2479 70.3518 94.3181C70.5732 94.3951 70.8265 94.4208 71.0462 94.3606C71.2844 94.292 71.2431 94.1035 71.3672 93.8543C71.4243 93.7355 71.5146 93.6728 71.5146 93.6125C71.5197 93.549 71.441 93.4645 71.3672 93.4394C71.2511 93.4026 71.1342 93.3856 71.0233 93.3871L71.0234 93.3872ZM71.7244 94.8931C71.6728 94.9136 71.6283 94.964 71.6065 95.0401C71.5696 95.1939 71.3762 95.6852 71.2789 95.8241C71.2034 95.9311 71.3968 95.9841 71.3968 95.9841C71.5142 95.9523 71.6609 95.8875 71.7833 96.0364C71.9075 96.1852 72.6972 97.7253 72.6972 97.7253C72.7492 97.834 72.5403 98.1584 72.8086 98.1467C73.1273 98.1283 73.5088 98.1794 73.6832 98.2479C73.814 98.3082 73.9485 98.129 73.9485 98.0487C73.9485 97.9617 74.1025 97.4378 74.1025 97.4378C74.1142 97.3341 74.0192 97.254 73.9387 97.2941C73.8615 97.3359 73.7206 97.3449 73.6636 97.268C73.6049 97.1827 72.6252 95.4745 72.6252 95.4745C72.6705 95.3725 72.6342 95.2008 72.5302 95.1707C72.3709 95.1139 71.9855 95.0177 71.8849 94.9257C71.8346 94.8814 71.7759 94.8726 71.7244 94.8931ZM18.2828 95.6901C18.2384 95.6719 18.1802 95.6856 18.1223 95.7358C18.0049 95.8412 17.4887 95.9805 17.3395 96.0658C17.1902 96.1427 17.2003 96.2606 17.3395 96.2422C17.4736 96.2138 17.7318 96.3245 17.5524 96.6473L16.8678 98.2838C16.7386 98.6367 16.7055 98.6236 16.4321 98.6203C16.3063 98.5986 16.178 98.6743 16.3273 98.8098C16.4849 98.9302 16.6727 99.3409 16.6778 99.4664C16.6895 99.6002 16.7871 99.6321 16.8743 99.6003C16.9598 99.5735 17.5709 99.4817 17.6899 99.4533C17.8459 99.4182 17.924 99.3773 17.7915 99.2769C17.6758 99.1832 17.6514 99.1133 17.6212 98.9862C17.6212 98.9862 18.3147 97.2937 18.4925 96.889C18.677 96.4876 18.839 96.8198 18.8692 97.0556C18.9078 97.3951 19.7112 97.4481 19.9829 97.2189C20.2479 96.9982 20.1503 96.9823 19.996 96.9739C19.9104 96.9739 19.7954 96.8895 19.7601 96.6603C19.73 96.4346 19.2295 96.1734 18.8102 96.4611C18.6593 96.5982 18.5745 96.5725 18.5678 96.4186C18.5611 96.2664 18.4468 96.0177 18.368 95.8404C18.3604 95.7576 18.3273 95.7084 18.2828 95.6902L18.2828 95.6901ZM69.1668 96.0854C69.0411 96.0743 68.9114 96.2465 68.8523 96.5525C68.7684 96.9556 68.0498 97.6772 67.9089 97.7056C67.7379 97.7374 67.8016 97.9959 68.0465 98.0846C68.2897 98.1816 68.7669 99.8521 68.7082 99.9792C68.6243 100.138 68.7147 100.323 68.9244 100.283C69.0351 100.261 69.3396 100.283 69.514 100.283C69.6884 100.283 69.8098 100.217 69.6254 100.45C69.4325 100.685 69.0796 101.027 69.3731 101.403C69.675 101.776 70.7298 101.399 70.9159 101.08C71.2681 100.426 70.6145 101.281 70.3394 100.799C70.2489 100.649 70.4299 100.576 70.6244 100.548C71.0722 100.494 71.5304 100.41 72.0788 99.8028C72.6255 99.1973 72.1586 98.5395 71.8298 98.5713C71.5028 98.6014 71.515 98.5494 71.3909 98.3655C71.2685 98.1798 70.6892 97.4408 70.6506 96.6145C70.6288 96.5225 70.6285 96.4736 70.4541 96.4936C70.288 96.5087 69.4456 96.3445 69.2879 96.1572C69.2498 96.1112 69.2086 96.089 69.1667 96.0853L69.1668 96.0854ZM65.7176 96.1867C65.3883 96.1268 65.0774 96.2541 64.9478 96.6505C64.9025 96.7642 64.7029 96.8685 64.8823 96.9739C65.0819 97.091 65.3292 97.1639 65.5473 97.1405C65.8072 97.1238 65.7971 96.9301 65.9665 96.7093C66.0504 96.604 66.1447 96.5554 66.1598 96.5035C66.1715 96.4483 66.1105 96.3376 66.0484 96.3075C65.9402 96.249 65.8274 96.2066 65.7176 96.1866L65.7176 96.1867ZM12.8815 96.3402C12.4828 96.3365 12.0242 96.4643 11.5418 96.8563C11.2868 97.1122 11.3804 97.1022 11.6269 97.0654C12.9921 96.8613 13.6447 97.1522 14.064 98.1891C14.0925 98.2962 14.0926 98.2969 14.267 98.2969C14.9849 98.3354 15.5493 98.2282 15.7673 98.0225C15.9853 97.8201 15.7083 97.9147 15.7083 97.9147C14.6752 97.9431 14.4747 97.1267 14.2081 96.8792C14.0435 96.7245 13.5459 96.3464 12.8814 96.3402L12.8815 96.3402ZM63.7486 96.3827C63.6581 96.3666 63.5468 96.3778 63.4932 96.4088C63.3791 96.4707 63.3774 96.4966 63.2835 96.5819C63.1644 96.7124 63.1736 96.7507 62.9723 96.6603C62.9723 96.6603 62.8899 96.6108 62.7037 96.4937C62.5561 96.3934 62.3015 96.2298 62.481 96.8269C62.5497 97.0209 64.1024 101.652 64.1024 101.652C64.1326 101.756 63.9604 102.067 64.1483 102.109C64.4652 102.171 64.9587 102.461 65.1113 102.563C65.2337 102.642 65.4008 102.497 65.4159 102.413C65.4344 102.333 65.5797 101.845 65.5797 101.845C65.6149 101.743 65.5441 101.653 65.4553 101.671C65.3731 101.698 65.2353 101.683 65.1866 101.59C65.1464 101.503 63.8463 97.4563 63.8011 97.366C63.7256 97.2188 63.754 96.8025 63.8731 96.5232C63.9067 96.4429 63.8392 96.3988 63.7486 96.3827V96.3827ZM26.0956 96.4044C25.6964 96.2957 25.2402 96.5817 25.2285 96.9212C25.2218 97.1386 25.1707 97.2212 25.4021 97.1041C25.496 97.0556 25.7015 97.0558 25.6445 97.3753C25.5858 97.6814 25.5916 98.5058 25.6838 98.9139C25.709 99.0092 25.6232 99.1109 25.5528 99.136C25.5528 99.136 24.9186 99.2735 24.4423 99.1915C24.3719 99.1798 24.2376 99.2009 24.308 99.4267C24.3432 99.5471 24.1745 100.576 24.0034 100.962C24.0034 100.962 23.9611 101.135 23.8069 101.204C23.6945 101.249 23.7314 101.457 23.8069 101.472C24.3335 101.671 24.667 101.979 24.6552 102.484C24.6552 102.662 24.7171 102.697 24.8026 102.661C25.2991 102.333 26.2857 102.28 26.4601 102.341C26.5691 102.366 26.6711 102.317 26.6828 102.216L27.2464 99.8548C27.2698 99.7796 27.2418 99.7243 27.2234 99.7176C26.9249 99.5387 26.6878 99.2 26.6207 98.914C26.5469 98.5661 26.4003 97.7135 26.5093 96.9475C26.5127 96.7903 26.4821 96.7102 26.4569 96.66C26.355 96.5229 26.2295 96.4417 26.0966 96.4052L26.0956 96.4044ZM44.1867 96.7964L44.072 97.2635L44.1867 96.7964ZM21.2252 97.11C21.1184 97.1118 21.0059 97.1411 20.8944 97.208C20.626 97.3736 20.3234 97.4258 20.5046 97.5412C20.627 97.6298 20.7076 97.5801 20.7076 97.8025C20.5114 98.5217 20.0787 99.7363 20.0787 99.7363C20.0418 99.8249 19.9381 99.9614 19.7872 99.9715C19.6815 100.007 19.7301 100.106 19.8593 100.233C19.975 100.34 20.2242 100.647 20.3047 100.808C20.3802 100.933 20.3891 101.102 20.5635 100.932C20.7329 100.771 21.1473 100.665 21.4676 100.713C21.7997 100.763 21.9368 101.156 22.0408 101.419C22.066 101.588 22.0684 101.675 22.2177 101.549C22.372 101.42 23.0262 101.191 23.1906 101.164C23.3298 101.135 23.27 101.015 23.1644 101.007C23.0252 100.994 22.6155 100.942 22.6927 100.497C22.7732 100.049 23.1504 98.7769 23.3282 98.7334C23.5093 98.7 23.5804 98.7204 23.5804 98.7204C23.7615 98.7304 23.6433 98.5924 23.6131 98.5472C23.5863 98.5037 23.2367 97.8939 23.2233 97.7534C23.2082 97.6113 23.0727 97.6783 23.0727 97.6783C22.8228 97.7937 22.4551 97.7596 22.3193 97.8449C22.2207 97.9071 22.1796 97.9509 22.1719 97.9886C22.1692 97.9995 22.1858 98.008 22.1883 98.018C22.2123 98.1098 22.3985 98.1826 22.339 98.446C22.2132 98.9728 22.0925 99.4903 21.7788 100.092C21.4552 100.698 20.9471 100.419 21.0746 99.9323C21.1853 99.5175 21.3089 99.0884 21.4447 98.6485C21.5856 98.2287 21.7818 97.7524 21.7952 97.5869C21.8091 97.3473 21.5456 97.1042 21.2253 97.1099L21.2252 97.11ZM69.2949 97.1949C69.4834 97.2073 69.6672 97.2575 69.7862 97.306C69.9204 97.3528 70.5731 98.3791 70.5429 99.008C70.5429 99.0481 69.7408 99.9385 69.5144 99.1909C69.3701 98.7226 69.1883 98.3242 68.9837 97.881C68.9015 97.7121 68.6367 97.4063 68.7675 97.3126C68.9109 97.2081 69.1064 97.1827 69.2949 97.195L69.2949 97.1949ZM65.8816 97.5445C65.8271 97.5543 65.7727 97.5959 65.7375 97.6653C65.667 97.8092 65.3915 98.2604 65.2691 98.3775C65.1651 98.4694 65.3411 98.5506 65.3411 98.5506C65.4669 98.5472 65.6288 98.5058 65.7244 98.6747C65.8133 98.8487 66.4254 100.762 66.4254 100.762C66.4606 100.869 66.1832 101.15 66.4516 101.19C66.7669 101.235 67.1374 101.351 67.2967 101.461C67.4141 101.546 67.5813 101.391 67.5981 101.311C67.6081 101.227 67.8601 100.749 67.8601 100.749C67.8886 100.639 67.8147 100.547 67.7258 100.576C67.642 100.596 67.5074 100.583 67.4605 100.494C67.4186 100.406 66.6547 98.2891 66.6547 98.2891C66.7167 98.1954 66.7142 98.0225 66.6219 97.969C66.4693 97.8887 66.1128 97.7217 66.0323 97.6096C65.9921 97.5545 65.9362 97.5345 65.8817 97.5443L65.8816 97.5445ZM57.9119 97.8777C57.8409 97.8465 57.7459 97.8902 57.6302 98.0181C57.3937 98.2623 55.858 99.4606 55.6551 99.5208C55.4521 99.5776 55.3079 99.7743 55.3079 100.105L55.8942 103.718C55.9713 104.17 55.9105 104.874 55.2849 104.372C54.552 103.786 53.7955 104.139 53.7552 104.813C53.7552 104.813 53.7698 104.995 53.8469 105.104C53.8469 105.104 54.0477 105.382 54.145 105.489C54.2809 105.629 54.423 105.767 54.5807 105.741C54.7501 105.719 54.7619 105.673 54.6462 105.616C54.3242 105.396 54.4761 104.832 54.9541 104.855C56.0241 104.956 56.9393 105.048 57.0047 104.271C56.9879 104.112 56.6116 101.941 56.6116 101.941C56.6334 101.692 56.9304 101.613 57.1652 101.752C57.3983 101.891 57.4602 101.904 57.7319 102.301C58.0321 102.712 58.1946 103.077 58.5082 103.957C58.6625 104.395 59.292 104.245 59.4614 104.071C59.604 103.932 59.9012 103.643 59.9331 103.5C60.0488 102.989 60.0444 103.005 59.6973 103.284C59.4591 103.463 59.3205 103.403 59.183 103.215C59.0086 102.548 58.3233 101.352 57.9677 101.18C57.5971 101.008 57.9239 100.892 58.0463 100.775C58.4589 100.394 58.0948 98.5341 58.0529 98.1879C58.0302 98.0157 57.9831 97.9087 57.912 97.8776L57.9119 97.8777ZM28.8893 98.0835C28.7848 98.1081 28.6792 98.165 28.5748 98.2566C28.4792 98.3369 28.248 98.321 28.3554 98.5016C28.4627 98.6989 28.6356 98.8847 28.8402 98.985C29.0683 99.0988 29.1618 98.9303 29.4134 98.8282C29.5425 98.7814 29.6483 98.7883 29.6886 98.7499C29.7305 98.708 29.7303 98.5814 29.6951 98.5212C29.5039 98.2088 29.2029 98.0096 28.8893 98.0835H28.8893ZM32.0077 98.4493C31.9388 98.4487 31.8535 98.5177 31.7981 98.6649C31.7344 98.8439 30.9707 100.254 30.1439 100.246C29.9561 100.246 29.8556 100.474 30.0686 100.497C30.4879 100.543 30.8318 100.687 30.8318 100.687C30.8737 100.704 30.8678 100.854 30.8678 100.854L30.3568 103.114C30.3401 103.225 29.9438 103.342 30.1636 103.5C30.4285 103.685 30.7035 103.955 30.7957 104.12C30.8645 104.249 31.0861 104.182 31.1364 104.12C31.1851 104.05 31.6212 103.735 31.6212 103.735C31.6967 103.651 31.6707 103.539 31.5852 103.516C31.4929 103.499 31.3557 103.43 31.3624 103.326C31.3624 103.226 31.7273 101.082 31.7424 101.023C31.7508 100.96 31.7653 100.937 31.8374 100.942C31.8374 100.942 32.2671 101.044 32.3124 101.072C32.3124 101.072 32.4622 101.074 32.427 101.409C32.4102 101.626 32.6167 101.594 32.6301 101.422C32.6301 101.422 32.7144 101.001 32.8201 100.687C32.9324 100.378 32.8375 100.24 32.653 100.207C32.653 100.207 32.1755 100.188 32.0765 100.086C31.9927 100.002 31.9941 99.8923 32.0175 99.7167C32.0175 99.7167 32.1039 98.9409 32.1224 98.6616C32.1299 98.5203 32.0767 98.4499 32.0077 98.4493L32.0077 98.4493ZM55.5596 98.629C55.5319 98.6195 55.4709 98.6936 55.3434 98.8642C55.0851 99.2154 54.9883 99.0881 54.5572 98.9426C53.5795 98.6198 53.0734 99.7195 53.4206 100.37C53.647 100.812 53.6669 100.655 53.7121 100.347C53.7557 100.034 54.1549 99.7236 54.6915 99.7788C55.2282 99.829 55.5273 99.34 55.5792 98.9001C55.5826 98.7312 55.5873 98.6386 55.5596 98.629ZM61.6982 99.217C61.6173 99.183 61.5104 99.2867 61.4689 99.3607C61.4186 99.4527 60.5666 100.322 59.8638 100.494C59.7481 100.543 59.8288 100.671 59.9261 100.736C60.0099 100.798 60.6228 102.616 60.5943 102.817C60.5692 103.012 60.4728 103.252 60.6959 103.271C60.9072 103.293 61.6914 103.528 61.7735 103.702C61.8591 103.873 62.1319 103.889 62.147 103.643C62.1537 103.399 62.6092 102.8 62.7333 102.732C62.8675 102.663 62.9626 102.259 62.6154 102.487C62.2716 102.713 61.866 102.532 61.767 102.405C61.663 102.27 61.4722 101.657 61.4722 101.657C61.8965 101.363 62.4907 100.735 62.6416 100.635C62.7926 100.521 62.6147 100.368 62.5728 100.318C62.5208 100.264 61.8324 99.5041 61.767 99.3051C61.7494 99.2574 61.7252 99.2282 61.6982 99.2169L61.6982 99.217ZM34.9397 99.3378C34.7414 99.2929 34.5275 99.3464 34.3304 99.5404C34.2432 99.619 34.0134 99.6194 34.1241 99.8017C34.2482 99.994 34.4385 100.162 34.6482 100.246C34.888 100.341 34.9683 100.17 35.2148 100.05C35.3339 99.9914 35.4416 100 35.4802 99.952C35.5187 99.9118 35.5076 99.7868 35.4572 99.7266C35.3189 99.5267 35.138 99.3828 34.9397 99.3378V99.3378ZM29.0027 99.5569C28.9515 99.5381 28.8847 99.5494 28.8192 99.5929C28.6817 99.6731 28.2155 99.9172 28.0495 99.9489C27.9103 99.979 28.0233 100.145 28.0233 100.145C28.1306 100.203 28.2921 100.246 28.282 100.449C28.2703 100.641 27.8267 102.314 27.8267 102.314C27.8066 102.428 27.4289 102.526 27.6302 102.696C27.8784 102.898 28.1411 103.192 28.2133 103.359C28.2787 103.495 28.4969 103.442 28.5539 103.389C28.6109 103.327 29.0715 103.033 29.0715 103.033C29.152 102.954 29.1306 102.842 29.0518 102.817C28.9596 102.789 28.8567 102.711 28.8651 102.614C28.8718 102.514 29.2844 100.586 29.2844 100.586C29.3833 100.542 29.4674 100.39 29.4154 100.302C29.3299 100.151 29.1078 99.8196 29.0944 99.6908C29.0894 99.6222 29.0538 99.5757 29.0027 99.5569L29.0027 99.5569ZM48.5059 99.7693C48.4393 99.7857 48.3753 99.8734 48.3585 100.031C48.3367 100.215 47.9483 101.775 47.1433 101.964C46.9554 102.011 46.9205 102.259 47.1302 102.229C47.5495 102.172 47.8181 102.203 47.8181 102.203C47.8684 102.206 47.8902 102.35 47.8902 102.35L48.1129 104.937C48.1246 105.047 47.7698 105.258 48.0146 105.352C48.3215 105.464 48.652 105.664 48.7811 105.806C48.8784 105.913 49.0735 105.795 49.1087 105.721C49.1439 105.644 49.4919 105.228 49.4919 105.228C49.5355 105.127 49.4941 105.024 49.4002 105.025C49.3113 105.025 49.1568 104.993 49.1316 104.898C49.1115 104.799 48.8861 102.39 48.8794 102.33C48.876 102.265 48.8827 102.239 48.9482 102.229C48.9482 102.229 49.4007 102.217 49.4494 102.239C49.4494 102.239 49.5939 102.2 49.6459 102.533C49.6761 102.747 49.8709 102.661 49.8457 102.5C49.8457 102.5 49.8104 102.07 49.8491 101.742C49.8809 101.416 49.7486 101.299 49.5641 101.311C49.5641 101.311 49.0967 101.409 48.981 101.34C48.8754 101.277 48.8455 101.173 48.8271 100.991C48.8271 100.991 48.7186 100.223 48.6666 99.9456C48.6397 99.8085 48.5727 99.7529 48.5061 99.7692L48.5059 99.7693ZM55.1326 99.8967C55.0932 99.877 55.0266 99.8866 54.9393 99.9293C54.0723 100.234 54.232 100.959 54.294 101.409C54.294 101.409 54.3405 101.59 54.104 101.684C53.8474 101.797 53.6269 102.207 53.7208 102.585C53.8265 103.033 53.9481 102.876 54.032 102.739C54.2399 102.418 54.4101 102.563 54.4873 102.732C54.4873 102.732 54.72 103.354 54.5757 103.856C54.5153 103.958 54.5421 104.068 54.7199 104.003C54.8909 103.951 55.5052 103.632 55.47 103.271C55.3828 102.662 54.9977 100.627 55.1621 100.044C55.1822 99.9642 55.172 99.9163 55.1326 99.8967ZM38.2339 100.802C38.1693 100.796 38.1013 100.817 38.0636 100.877C37.7751 101.33 37.1059 101.743 36.3177 101.87H36.2784C36.2549 101.861 36.1728 101.906 36.2063 102.03C36.4143 102.595 35.9918 104.178 35.918 104.248C35.8392 104.301 35.8861 104.419 36.0622 104.45C36.0622 104.45 37.0272 104.72 37.2938 105.261C37.2938 105.261 37.3894 105.583 37.6443 105.225C37.8959 104.862 38.818 104.415 39.1249 104.408C39.1249 104.408 39.4438 104.313 39.2526 104.022C39.095 103.793 39.276 102.253 39.3968 102.059C39.4756 101.974 39.566 101.834 39.3345 101.769C38.8347 101.615 38.4133 101.009 38.3781 100.89C38.3588 100.839 38.2985 100.807 38.2339 100.802L38.2339 100.802ZM34.6896 100.808C34.6362 100.792 34.5699 100.804 34.5095 100.851C34.3787 100.943 33.9303 101.225 33.7659 101.272C33.6351 101.309 33.756 101.465 33.756 101.465C33.8667 101.513 34.031 101.548 34.0377 101.742C34.0411 101.938 33.7495 103.702 33.7495 103.702C33.736 103.813 33.3612 103.94 33.5758 104.098C33.8459 104.282 34.1158 104.558 34.208 104.715C34.2768 104.844 34.4985 104.785 34.5454 104.718C34.5991 104.646 35.0368 104.333 35.0368 104.333C35.1089 104.249 35.0847 104.136 34.9975 104.121C34.9136 104.1 34.8009 104.033 34.8009 103.931C34.8009 103.824 35.0433 101.818 35.0433 101.818C35.1439 101.756 35.2167 101.606 35.158 101.517C35.0607 101.375 34.8228 101.061 34.7976 100.929C34.7851 100.866 34.743 100.824 34.6896 100.808L34.6896 100.808ZM45.496 101.51C45.4329 101.518 45.3643 101.56 45.3257 101.599C45.2485 101.676 44.1879 102.279 43.4684 102.245C43.346 102.264 43.3865 102.405 43.4585 102.5C43.5223 102.582 43.6128 104.5 43.5306 104.685C43.4468 104.869 43.3016 105.066 43.4979 105.146C43.7041 105.23 44.3931 105.666 44.4216 105.855C44.4534 106.046 44.7195 106.136 44.795 105.901C44.8755 105.668 45.4698 105.224 45.6106 105.189C45.7515 105.158 45.9572 104.799 45.5648 104.921C45.1791 105.046 44.8275 104.759 44.7688 104.61C44.7084 104.448 44.6902 103.813 44.6902 103.813C45.1782 103.643 45.9292 103.214 46.1053 103.15C46.2763 103.088 46.1552 102.886 46.1217 102.817C46.0848 102.757 45.6373 101.834 45.6205 101.631C45.6147 101.53 45.5592 101.503 45.4961 101.51L45.496 101.51ZM44.8016 102.324C44.8571 102.32 44.9097 102.359 44.9097 102.435C44.9097 102.585 45.017 102.964 45.1193 103.114C45.2132 103.235 45.2483 103.387 44.9883 103.441C44.844 103.476 44.5934 103.631 44.6018 103.314C44.6051 103.066 44.6637 102.585 44.6771 102.461C44.688 102.375 44.746 102.328 44.8016 102.324L44.8016 102.324Z" fill="#001A57"/>
<path d="M56.6261 14.4669C55.8999 14.501 55.1007 14.8273 54.6018 15.8618C54.3603 16.3368 54.0222 16.94 55.0604 16.1623C55.5786 15.8746 56.7965 15.8816 57.2846 16.0806C57.776 16.273 59.2896 16.4159 60.1835 15.4926C60.6967 15.0059 60.6285 14.9366 60.1606 15.1072C58.8927 15.2075 58.6224 15.1303 58.2116 14.8393C58.0044 14.6938 57.3524 14.4328 56.6262 14.4669L56.6261 14.4669ZM20.8195 14.9504C20.0931 14.9847 19.2917 15.3132 18.7918 16.3485C18.547 16.8252 18.209 17.4183 19.2471 16.6523C19.757 16.3596 20.9882 16.3718 21.4779 16.5608C21.9626 16.7599 23.4728 16.9076 24.3768 15.9794C24.89 15.4943 24.8218 15.4217 24.3539 15.5906C23.0876 15.6927 22.8158 15.6172 22.4049 15.3195C22.1994 15.174 21.5459 14.9161 20.8195 14.9504ZM31.1083 15.0614C30.1825 15.0614 28.065 15.7607 27.3086 16.1002C26.6059 16.3979 26.0619 16.7281 25.6577 16.979C24.7319 17.5694 24.2616 17.9562 24.2918 19.1186L24.2951 26.0503C24.2783 26.2812 24.4896 26.3911 24.6489 26.3476C24.6489 26.3476 26.5704 25.6031 26.5586 25.3807V17.1651C26.6408 16.5229 27.6622 16.1615 28.5141 16.1949C28.6835 16.21 30.2169 19.845 31.2198 21.6697C31.4027 21.9976 31.5722 22.4021 31.7014 22.7935C32.0385 23.7552 32.257 24.704 32.0289 25.7008C31.8629 26.4518 31.6826 27.1679 31.2952 27.847C31.0872 28.2233 30.7029 28.6273 30.4664 28.8531C30.0774 29.2294 29.6629 29.7212 29.2184 29.3366C28.301 28.5471 27.3986 27.9353 26.2212 27.7196C23.9236 27.2881 21.5515 27.8793 20.0303 29.6371C20.0001 29.6706 19.8951 30.0218 20.3546 29.7743C22.2061 28.923 24.4503 29.1552 25.3794 29.6469C26.4176 29.9864 27.242 30.6885 28.1997 31.3358C28.2902 31.3994 28.4661 31.3994 28.56 31.3358C31.2836 29.5563 33.8458 27.6419 34.3841 24.3387C34.7062 22.4337 34.3117 20.7389 33.2082 19.1316C32.3948 17.9441 31.7523 16.8309 31.4689 15.4076C31.432 15.247 31.2041 15.0346 31.1085 15.0613L31.1083 15.0614ZM68.156 15.7148C68.0838 15.7091 68.0116 15.7278 67.9496 15.7638C67.7752 15.8624 66.4375 16.7873 66.315 16.881C66.1893 16.978 66.2363 17.1482 66.3806 17.2436C66.5332 17.3439 66.8195 17.5604 66.8195 17.5604C66.8195 17.5604 67.016 17.5857 67.016 17.8316V27.6609C67.016 27.6609 67.0878 28.0032 66.8195 28.1738C65.6723 29.0619 65.1738 29.4257 64.7395 29.0427C63.8272 28.2499 62.9197 27.6432 61.739 27.4225C61.6602 27.4091 61.6738 27.4032 61.5883 27.3898L61.5949 16.8516C61.62 16.3883 61.4627 16.2689 61.1592 16.391C59.3546 17.2189 59.1933 17.4171 59.2201 18.5862V27.3669C57.8163 27.5793 56.5124 28.2375 55.548 29.3497C55.5229 29.3814 55.4144 29.7345 55.8756 29.4836C57.7288 28.6323 59.9713 28.8628 60.9004 29.3562C61.9369 29.6957 62.7614 30.3995 63.7207 31.0418C63.8112 31.102 63.9838 31.102 64.0777 31.0418C64.9699 30.4614 66.0836 29.7685 66.8752 29.0426C67.3347 28.6312 67.4582 29.1177 67.4582 29.1177C67.7031 29.7466 68.5107 30.7558 68.9552 31.0418C69.3074 31.2693 69.63 31.0908 69.63 31.0908C70.0509 30.7998 70.5561 30.2389 70.8747 30.0683C71.1934 29.8961 70.9457 29.5654 70.9206 29.5588C70.1407 29.1941 69.5345 27.6579 69.4858 26.3182L69.4728 18.3639C69.4442 18.1716 69.5102 18.0015 69.7282 17.8543C69.9496 17.7055 69.8468 17.4417 69.7512 17.3447C69.6505 17.2444 68.4815 15.9315 68.359 15.8094C68.3003 15.7509 68.2281 15.7203 68.1559 15.7147L68.156 15.7148ZM57.0484 17.9295C56.9811 17.9151 56.8936 17.9649 56.8224 18.0242C56.3846 18.1714 55.2145 18.8996 54.7751 19.4616C54.7751 19.4616 54.5552 19.7017 54.5753 20.1182V22.4799C54.5753 22.4799 54.6249 22.9407 54.1167 22.7935C53.3553 22.5778 52.7182 23.158 52.5018 23.424C52.2821 23.6966 52.503 23.9327 52.8719 23.62C53.7239 23.4226 54.5752 23.7679 54.5752 24.4236V27.8992C54.5752 28.0748 54.6743 28.17 54.9192 28.0462C55.6521 27.8071 56.7769 26.9081 56.9664 26.6154C57.1643 26.3194 57.163 26.2478 57.163 25.9066C57.163 25.9066 57.1881 18.2137 57.163 18.2137C57.163 18.023 57.1156 17.9439 57.0483 17.9295L57.0484 17.9295ZM21.921 18.1712C21.8546 18.156 21.7696 18.2058 21.695 18.266C21.2573 18.4132 20.0839 19.1414 19.6412 19.7C19.6412 19.7 19.426 19.9451 19.4512 20.3599V22.7185C19.4512 22.7185 19.4975 23.1874 18.9893 23.0419C18.2246 22.8228 17.599 23.3999 17.381 23.6658C17.1613 23.9317 17.379 24.1812 17.7446 23.8651C18.5966 23.6677 19.4544 24.0081 19.4544 24.6654V28.1476H19.4511C19.4511 28.3182 19.5486 28.4135 19.7917 28.288C20.5213 28.0472 21.6476 27.1501 21.8455 26.8507C22.0367 26.5613 22.0355 26.4928 22.0355 26.1516C22.0355 26.1516 22.059 18.4653 22.0355 18.4653C22.0355 18.2687 21.9873 18.1865 21.9209 18.1713L21.921 18.1712ZM74.9265 93.5683C74.9265 93.5683 74.848 93.5423 74.8413 93.6042C74.838 93.6677 74.728 93.9169 74.6743 93.9537C74.6307 93.9738 74.6305 94.0311 74.6808 94.0746C74.9425 94.4174 75.3336 95.6269 75.3622 95.7373C75.384 95.8477 75.4456 95.8911 75.5194 95.8777C75.7391 95.841 76.3267 95.9806 76.4005 95.9823C76.4341 95.9906 76.6449 95.9052 76.4923 95.7112C76.3782 95.5606 75.7504 94.2113 75.6078 93.8132C75.5911 93.768 75.5817 93.7572 75.5096 93.774C75.4291 93.7974 75.1026 93.7154 74.9265 93.5682V93.5683ZM57.0786 98.8601C57.035 98.835 56.8936 98.8753 56.8198 98.9222C56.7628 98.9656 56.2219 99.3195 56.2269 99.7878C56.2269 100.285 56.1779 100.244 56.4529 101.418C56.5032 101.627 57.0011 101.294 57.0229 101.281C57.2912 101.026 57.331 100.988 57.3897 100.634C57.4115 99.8294 57.2127 98.9204 57.0785 98.8602L57.0786 98.8601ZM25.8069 99.3403C25.2971 99.3035 25.2976 99.7416 25.2238 100.043C25.1148 100.474 24.9564 101.085 25.047 101.415C25.1342 101.741 25.1698 102.005 25.5186 102.058C25.6931 102.083 25.9506 101.766 25.9707 101.666C26.12 100.962 26.2822 100.483 26.3376 99.8009C26.3745 99.3293 25.9495 99.352 25.8069 99.3403L25.8069 99.3403ZM61.164 100.206C61.111 100.224 61.0646 100.281 61.0789 100.369C61.104 100.49 61.1823 100.976 61.2427 101.206C61.3215 101.515 61.5197 101.299 61.6488 101.232C61.8769 101.098 61.8091 100.964 61.6816 100.872C61.5474 100.755 61.3352 100.413 61.2983 100.275C61.2782 100.207 61.2171 100.188 61.164 100.206V100.206ZM37.6742 101.669C37.6457 101.725 37.4368 101.901 37.363 101.901C37.3161 101.901 37.2921 101.941 37.3139 102.003C37.3776 102.431 37.159 103.691 37.1305 103.796C37.0986 103.91 37.1306 103.969 37.196 103.995C37.4073 104.069 37.8693 104.458 37.9297 104.502C37.9549 104.52 38.1779 104.547 38.1394 104.296C38.1075 104.12 38.1935 102.635 38.2573 102.212C38.2623 102.158 38.2608 102.152 38.1787 102.133C38.0998 102.118 37.8596 101.888 37.7758 101.679C37.7758 101.679 37.7094 101.618 37.6742 101.669H37.6742Z" fill="white"/>
</g>
<defs>
<clipPath id="clip0_7_73">
<rect width="88" height="108.308" fill="white" transform="translate(0 0.088623)"/>
</clipPath>
</defs>
</svg>
