<svg width="36" height="36" viewBox="0 0 36 36" fill="none" xmlns="http://www.w3.org/2000/svg">
<path d="M10.7992 3.59998C9.84444 3.59998 8.92877 3.97926 8.25363 4.65439C7.5785 5.32952 7.19922 6.2452 7.19922 7.19998V28.8C7.19922 29.7548 7.5785 30.6704 8.25363 31.3456C8.92877 32.0207 9.84444 32.4 10.7992 32.4H18.4618C18.0034 31.8447 17.6068 31.2412 17.2792 30.6H10.7992C10.3218 30.6 9.86399 30.4103 9.52643 30.0728C9.18886 29.7352 8.99922 29.2774 8.99922 28.8H16.5718C16.0904 27.1043 16.0705 25.3108 16.5141 23.6048C16.9577 21.8989 17.8487 20.3423 19.0951 19.0959C20.3415 17.8494 21.8981 16.9584 23.6041 16.5148C25.3101 16.0712 27.1035 16.0912 28.7992 16.5726V7.19998C28.7992 6.2452 28.4199 5.32952 27.7448 4.65439C27.0697 3.97926 26.154 3.59998 25.1992 3.59998H10.7992ZM12.1492 8.09998H23.8492C24.2073 8.09998 24.5506 8.24221 24.8038 8.49538C25.057 8.74856 25.1992 9.09193 25.1992 9.44998C25.1992 9.80802 25.057 10.1514 24.8038 10.4046C24.5506 10.6577 24.2073 10.8 23.8492 10.8H12.1492C11.7912 10.8 11.4478 10.6577 11.1946 10.4046C10.9415 10.1514 10.7992 9.80802 10.7992 9.44998C10.7992 9.09193 10.9415 8.74856 11.1946 8.49538C11.4478 8.24221 11.7912 8.09998 12.1492 8.09998ZM34.1992 26.1C34.1992 28.2482 33.3458 30.3085 31.8268 31.8275C30.3077 33.3466 28.2475 34.2 26.0992 34.2C23.951 34.2 21.8907 33.3466 20.3717 31.8275C18.8526 30.3085 17.9992 28.2482 17.9992 26.1C17.9992 23.9517 18.8526 21.8915 20.3717 20.3724C21.8907 18.8534 23.951 18 26.0992 18C28.2475 18 30.3077 18.8534 31.8268 20.3724C33.3458 21.8915 34.1992 23.9517 34.1992 26.1ZM25.2352 22.5612C25.1185 22.481 24.9829 22.4327 24.8418 22.421C24.7006 22.4094 24.5589 22.4347 24.4306 22.4946C24.3259 22.5407 24.2311 22.6067 24.1516 22.689C23.9839 22.8608 23.8902 23.0915 23.8906 23.3316V28.8666C23.8895 28.9859 23.912 29.1042 23.9568 29.2148C24.0016 29.3254 24.0678 29.4261 24.1516 29.511C24.2338 29.5927 24.3294 29.6596 24.4342 29.709C24.6168 29.7927 24.8241 29.8055 25.0156 29.745C25.0986 29.7176 25.1774 29.6789 25.2496 29.6298L29.3824 26.8092C29.5082 26.7263 29.6095 26.6114 29.6758 26.4762C29.7442 26.34 29.7794 26.1896 29.7784 26.0372C29.7775 25.8849 29.7405 25.7349 29.6704 25.5996C29.6 25.4664 29.4965 25.3535 29.3698 25.272L25.2352 22.5612Z" fill="#114F8C"/>
</svg>
