<svg width="161" height="52" viewBox="0 0 161 52" fill="none" xmlns="http://www.w3.org/2000/svg">
<g clip-path="url(#clip0_7_38)">
<path d="M20.1394 18.8676V24.2216H33.1437C32.7984 27.1834 31.7627 29.4617 30.1515 30.9426C28.3102 32.7652 25.3181 34.8157 20.1394 34.8157C12.1987 34.8157 5.98428 28.4365 5.98428 20.5763C5.98428 12.7162 12.0836 6.33692 20.1394 6.33692C24.3974 6.33692 27.6197 8.04565 29.9214 10.21L33.7191 6.45084C30.4968 3.37513 26.1237 0.98291 20.1394 0.98291C9.20658 0.98291 0 9.75438 0 20.5763C0 31.3983 9.20658 40.1697 20.1394 40.1697C26.0086 40.1697 30.4968 38.2332 33.9493 34.7018C37.5168 31.1704 38.6676 26.1582 38.6676 22.1711C38.6676 20.9181 38.5526 19.7789 38.4375 18.8676H20.1394Z" fill="#4285F4"/>
<path d="M54.7789 14.4248C47.7588 14.4248 41.8896 19.7788 41.8896 27.0694C41.8896 34.36 47.6438 39.714 54.7789 39.714C61.9139 39.714 67.6681 34.4739 67.6681 27.1833C67.6681 19.7788 61.9139 14.4248 54.7789 14.4248ZM54.7789 34.8156C50.8661 34.8156 47.5287 31.626 47.5287 27.1833C47.5287 22.6267 50.8661 19.551 54.7789 19.551C58.6916 19.551 62.029 22.6267 62.029 27.1833C62.029 31.626 58.6916 34.8156 54.7789 34.8156Z" fill="#EA4335"/>
<path d="M117.729 17.2727H117.499C116.233 15.7918 113.816 14.4248 110.709 14.4248C104.264 14.4248 98.7402 19.8927 98.7402 27.0694C98.7402 34.1321 104.264 39.714 110.709 39.714C113.816 39.714 116.233 38.347 117.499 36.8661H117.729V38.6887C117.729 43.4732 115.082 46.0932 110.939 46.0932C107.486 46.0932 105.415 43.701 104.494 41.5366L99.6609 43.5871C101.042 46.8906 104.84 51.1055 111.054 51.1055C117.614 51.1055 123.253 47.2324 123.253 37.8913V15.1083H117.959V17.2727H117.729ZM111.284 34.8156C107.371 34.8156 104.494 31.5121 104.494 27.1833C104.494 22.7406 107.486 19.551 111.284 19.551C115.082 19.551 118.074 22.8545 118.074 27.2972C118.189 31.626 115.197 34.8156 111.284 34.8156Z" fill="#4285F4"/>
<path d="M83.4351 14.4248C76.4151 14.4248 70.5459 19.7788 70.5459 27.0694C70.5459 34.36 76.3 39.714 83.4351 39.714C90.5702 39.714 96.3243 34.4739 96.3243 27.1833C96.3243 19.7788 90.5702 14.4248 83.4351 14.4248ZM83.4351 34.8156C79.5223 34.8156 76.1849 31.626 76.1849 27.1833C76.1849 22.6267 79.5223 19.551 83.4351 19.551C87.3479 19.551 90.6853 22.6267 90.6853 27.1833C90.6853 31.626 87.3479 34.8156 83.4351 34.8156Z" fill="#FBBC05"/>
<path d="M127.511 1.55249H133.035V39.828H127.511V1.55249Z" fill="#34A853"/>
<path d="M150.067 34.8156C147.19 34.8156 145.234 33.5625 143.853 30.9425L161 23.9937L160.425 22.5128C159.389 19.6649 156.052 14.4248 149.492 14.4248C142.932 14.4248 137.408 19.551 137.408 27.0694C137.408 34.1321 142.817 39.714 150.067 39.714C155.936 39.714 159.274 36.1826 160.77 34.1321L156.397 31.2842C154.901 33.4486 152.944 34.8156 150.067 34.8156ZM149.722 19.2092C152.024 19.2092 153.98 20.3484 154.555 21.9432L143.047 26.7276C142.932 21.4875 146.845 19.2092 149.722 19.2092Z" fill="#EA4335"/>
</g>
<defs>
<clipPath id="clip0_7_38">
<rect width="161" height="50.1227" fill="white" transform="translate(0 0.98291)"/>
</clipPath>
</defs>
</svg>
