<svg width="223" height="48" viewBox="0 0 223 48" fill="none" xmlns="http://www.w3.org/2000/svg">
<g clip-path="url(#clip0_7_46)">
<path d="M78.7147 27.6584L77.3855 31.42H77.2748C77.0532 30.5718 76.6471 29.281 75.9825 27.7321L68.8569 9.846H61.8789V38.3531H66.494V20.7621C66.494 19.6557 66.494 18.4018 66.457 16.8529C66.4201 16.0785 66.3463 15.4884 66.3094 15.0459H66.4201C66.6417 16.1522 66.9001 16.9636 67.0847 17.4799L75.6503 38.2794H78.8993L87.391 17.2955C87.5756 16.8161 87.7602 15.8572 87.9448 15.0459H88.0556C87.9448 17.148 87.871 19.0288 87.834 20.172V38.2425H92.7445V9.77224H86.0249L78.7147 27.6584ZM97.3965 17.8118H102.196V38.2425H97.3965V17.8118ZM99.8332 9.18219C99.021 9.18219 98.3564 9.47722 97.8026 9.99352C97.2488 10.5098 96.9534 11.1736 96.9534 11.985C96.9534 12.7594 97.2488 13.4232 97.8026 13.9395C98.3564 14.4558 99.021 14.714 99.8332 14.714C100.645 14.714 101.347 14.4189 101.864 13.9395C102.418 13.4232 102.713 12.7594 102.713 11.985C102.713 11.2105 102.418 10.5467 101.864 9.99352C101.384 9.47722 100.682 9.18219 99.8332 9.18219ZM119.216 17.6274C118.33 17.443 117.407 17.3324 116.521 17.3324C114.343 17.3324 112.349 17.8118 110.688 18.7706C109.026 19.7295 107.697 21.0571 106.848 22.7166C105.962 24.413 105.519 26.3676 105.519 28.6172C105.519 30.5718 105.962 32.3051 106.811 33.8908C107.66 35.4397 108.842 36.6936 110.429 37.5418C111.943 38.39 113.715 38.8326 115.709 38.8326C117.998 38.8326 119.955 38.3531 121.506 37.4681L121.542 37.4312V33.0057L121.358 33.1533C120.656 33.6696 119.844 34.1121 119.032 34.3703C118.183 34.6653 117.407 34.8128 116.743 34.8128C114.823 34.8128 113.309 34.2596 112.239 33.0426C111.131 31.8625 110.577 30.2399 110.577 28.2115C110.577 26.1095 111.131 24.4499 112.275 23.2329C113.42 22.0159 114.934 21.389 116.78 21.389C118.33 21.389 119.918 21.9053 121.358 22.9379L121.542 23.0854V18.4018L121.506 18.365C120.878 18.1068 120.176 17.8118 119.216 17.6274ZM135.055 17.4799C133.874 17.4799 132.766 17.8487 131.806 18.6231C130.994 19.2869 130.44 20.2458 129.96 21.389H129.923V17.8118H125.124V38.2425H129.923V27.8059C129.923 26.0357 130.293 24.5606 131.105 23.4911C131.917 22.3847 132.951 21.8315 134.206 21.8315C134.649 21.8315 135.092 21.9422 135.646 22.0159C136.163 22.1634 136.532 22.311 136.791 22.4954L136.975 22.6429V17.8487L136.865 17.8118C136.532 17.5905 135.868 17.4799 135.055 17.4799ZM148.125 17.3692C144.765 17.3692 142.07 18.365 140.187 20.3195C138.267 22.2741 137.344 24.9662 137.344 28.359C137.344 31.5306 138.304 34.1121 140.15 35.9929C141.996 37.8368 144.507 38.7957 147.645 38.7957C150.931 38.7957 153.553 37.8 155.436 35.8085C157.355 33.8171 158.278 31.1618 158.278 27.8796C158.278 24.6343 157.392 22.0528 155.583 20.172C153.848 18.2912 151.3 17.3692 148.125 17.3692ZM151.965 33.0795C151.079 34.2227 149.676 34.7759 147.941 34.7759C146.205 34.7759 144.802 34.2227 143.806 33.0057C142.809 31.8625 142.329 30.203 142.329 28.1009C142.329 25.9251 142.846 24.2655 143.806 23.0854C144.802 21.9053 146.168 21.3152 147.904 21.3152C149.602 21.3152 150.931 21.8684 151.891 23.0117C152.851 24.1549 153.368 25.8144 153.368 27.9903C153.294 30.203 152.888 31.9363 151.965 33.0795ZM168.985 26.2938C167.472 25.6669 166.512 25.1875 166.069 24.7818C165.699 24.413 165.515 23.8967 165.515 23.2329C165.515 22.6797 165.736 22.1266 166.29 21.7578C166.844 21.389 167.472 21.2046 168.395 21.2046C169.207 21.2046 170.056 21.3521 170.868 21.5734C171.681 21.7947 172.419 22.1266 173.01 22.5691L173.194 22.7166V18.2174L173.084 18.1806C172.53 17.9593 171.791 17.738 170.905 17.5536C170.019 17.4061 169.207 17.3324 168.542 17.3324C166.253 17.3324 164.37 17.8855 162.893 19.1025C161.417 20.2458 160.715 21.7947 160.715 23.6017C160.715 24.5606 160.863 25.4088 161.195 26.1095C161.527 26.8101 162.007 27.474 162.672 28.0271C163.337 28.5434 164.296 29.1335 165.626 29.6867C166.733 30.1661 167.582 30.5349 168.099 30.8299C168.616 31.1249 168.948 31.4568 169.207 31.715C169.391 32.01 169.502 32.3788 169.502 32.8582C169.502 34.2227 168.468 34.8866 166.364 34.8866C165.552 34.8866 164.703 34.739 163.706 34.4071C162.709 34.0752 161.786 33.5958 161.011 33.0426L160.826 32.8951V37.5787L160.937 37.6156C161.638 37.9475 162.487 38.1687 163.521 38.4269C164.555 38.6113 165.478 38.7588 166.29 38.7588C168.764 38.7588 170.794 38.2056 172.234 36.9886C173.711 35.8085 174.487 34.2965 174.487 32.3419C174.487 30.9774 174.117 29.7604 173.305 28.8385C172.234 27.9534 170.905 27.0314 168.985 26.2938ZM187.15 17.3692C183.79 17.3692 181.095 18.365 179.212 20.3195C177.329 22.2741 176.369 24.9662 176.369 28.359C176.369 31.5306 177.329 34.1121 179.175 35.9929C181.021 37.8368 183.532 38.7957 186.67 38.7957C189.956 38.7957 192.578 37.8 194.461 35.8085C196.38 33.8171 197.303 31.1618 197.303 27.8796C197.303 24.6343 196.417 22.0528 194.608 20.172C192.873 18.2912 190.325 17.3692 187.15 17.3692ZM190.953 33.0795C190.067 34.2227 188.664 34.7759 186.929 34.7759C185.157 34.7759 183.79 34.2227 182.794 33.0057C181.797 31.8625 181.317 30.203 181.317 28.1009C181.317 25.9251 181.834 24.2655 182.794 23.0854C183.79 21.9053 185.157 21.3152 186.892 21.3152C188.553 21.3152 189.919 21.8684 190.879 23.0117C191.839 24.1549 192.356 25.8144 192.356 27.9903C192.356 30.203 191.876 31.9363 190.953 33.0795ZM222.963 21.7578V17.8118H218.127V11.7637L217.979 11.8006L213.401 13.1651L213.29 13.202V17.8118H206.054V15.2303C206.054 14.0502 206.349 13.1282 206.866 12.5381C207.383 11.9481 208.158 11.6531 209.118 11.6531C209.783 11.6531 210.484 11.8006 211.259 12.1325L211.444 12.2431V8.07583L211.333 8.03895C210.669 7.81768 209.783 7.67017 208.638 7.67017C207.198 7.67017 205.943 8.00207 204.798 8.55525C203.654 9.18219 202.805 10.0304 202.177 11.1736C201.549 12.28 201.217 13.5339 201.217 14.9721V17.8118H197.857V21.7209H201.217V38.2425H206.054V21.7578H213.29V32.2682C213.29 36.583 215.321 38.7588 219.382 38.7588C220.046 38.7588 220.748 38.6482 221.413 38.5375C222.114 38.39 222.631 38.2056 222.926 38.0581L222.963 38.0212V34.0752L222.779 34.2227C222.483 34.4071 222.225 34.5546 221.782 34.6653C221.413 34.7759 221.08 34.8128 220.822 34.8128C219.862 34.8128 219.197 34.5915 218.717 34.0383C218.274 33.522 218.053 32.6738 218.053 31.42V21.7578H222.963Z" fill="#737373"/>
<path d="M0 0.257568H22.6323V22.8641H0V0.257568Z" fill="#F25022"/>
<path d="M24.9951 0.257568H47.6274V22.8641H24.9951V0.257568Z" fill="#7FBA00"/>
<path d="M0 25.2244H22.6323V47.8309H0V25.2244Z" fill="#00A4EF"/>
<path d="M24.9951 25.2244H47.6274V47.8309H24.9951V25.2244Z" fill="#FFB900"/>
</g>
<defs>
<clipPath id="clip0_7_46">
<rect width="223" height="47.5733" fill="white" transform="translate(0 0.257568)"/>
</clipPath>
</defs>
</svg>
