<svg width="157" height="157" viewBox="0 0 157 157" fill="none" xmlns="http://www.w3.org/2000/svg">
<path d="M63.8493 103.915L63.8642 103.931L63.8713 103.897C63.8647 103.902 63.8568 103.91 63.8493 103.915Z" fill="#2F80ED"/>
<path d="M72.7782 101.123L72.7808 101.138L67.0492 94.6741C66.5482 94.1122 66.3255 93.3572 66.4494 92.6111L66.8909 89.8643C70.4041 75.0382 89.2497 70.6782 91.7438 60.1541C91.7535 60.1219 91.7571 60.0984 91.7581 60.06C93.5252 60.1749 95.0109 60.6501 96.1231 61.4348C97.0353 62.0784 97.7026 62.94 98.0595 63.946C98.1414 64.1991 98.2171 64.461 98.2655 64.7413C98.2886 64.8748 98.3116 65.0082 98.3224 65.1591C98.3475 65.4373 98.3604 65.733 98.3494 66.0235C98.3413 66.3304 98.3042 66.6415 98.2515 66.9561C98.224 67.1059 98.1902 67.2645 98.1504 67.4317C98.1202 67.5668 98.084 67.7105 98.0477 67.8542C98.0124 67.9596 97.9833 68.0562 97.948 68.1616C97.9214 68.2731 97.88 68.3872 97.8448 68.4925C97.785 68.6327 97.7338 68.779 97.674 68.9191C97.6106 69.0828 97.5411 69.2552 97.4635 69.4205C97.4134 69.5285 97.3511 69.6538 97.301 69.7617C97.2483 69.8548 97.2043 69.954 97.1517 70.0471C97.0709 70.1985 96.9901 70.35 96.8951 70.5031C96.8328 70.6284 96.7617 70.7476 96.6819 70.8606C91.9673 78.3735 79.0307 83.1162 74.4089 93.8167L74.3843 93.8515C74.2744 94.0996 74.1738 94.3529 74.0813 94.6133C73.974 94.8762 73.8846 95.1505 73.7885 95.4344C73.6005 95.9777 73.4467 96.5465 73.3039 97.1347L72.6166 100.045C72.5221 100.436 72.5954 100.812 72.7782 101.123Z" fill="url(#paint0_linear_71_1282)"/>
<path d="M74.0806 94.6127C74.1732 94.3523 74.2738 94.099 74.3837 93.8509L74.4082 93.8161C74.3009 94.079 74.1941 94.3411 74.0806 94.6127Z" fill="url(#paint1_linear_71_1282)"/>
<path d="M63.6211 103.656L63.6228 103.658L63.6199 103.658L63.6211 103.656Z" fill="#2F80ED"/>
<path d="M67.7178 122.002L61.8144 115.3L61.3282 114.748C61.32 114.736 61.3147 114.723 61.3092 114.709C61.1994 114.475 61.1506 114.21 61.1845 113.933C61.1825 113.93 61.1825 113.93 61.1839 113.93C61.1889 113.875 61.1993 113.82 61.2126 113.764L62.6834 107.566L63.3629 104.695C63.3762 104.639 63.3921 104.585 63.4112 104.532C63.4118 104.531 63.4107 104.529 63.4136 104.528C63.5022 104.285 63.6545 104.074 63.8474 103.914L63.8623 103.929L70.0302 110.934L70.2896 111.141C70.047 111.337 69.87 111.612 69.7951 111.93L69.1156 114.802L69.1066 114.843L67.6448 121C67.5673 121.329 67.6069 121.652 67.7339 121.928L67.7178 122.002Z" fill="url(#paint2_linear_71_1282)"/>
<path d="M61.3105 114.709C61.3161 114.724 61.3213 114.737 61.3296 114.749L61.3087 114.725L61.3078 114.724L61.3105 114.709Z" fill="#2F80ED"/>
<path d="M63.8723 103.897L63.8652 103.931L63.8503 103.915C63.8569 103.91 63.8648 103.902 63.8723 103.897Z" fill="#2F80ED"/>
<path d="M75.303 110.355L75.302 110.358L74.4676 110.448L74.4682 110.447L75.303 110.355Z" fill="#2F80ED"/>
<path d="M70.126 58.4411L64.4745 50.4015C64.4745 50.4015 73.8686 42.2007 87.0566 40.7548C93.34 40.0642 98.974 41.1985 102.667 44.0266C103.113 44.3718 103.534 44.739 103.924 45.1338L103.933 45.1444L104.749 46.0704L110.472 52.5489C109.428 51.4583 108.148 50.5498 106.682 49.8346C106.084 49.543 105.458 49.2861 104.8 49.0575C101.568 47.9247 97.665 47.5767 93.4667 48.0349C80.2799 49.479 70.8874 57.6758 70.8874 57.6758L70.9943 57.8307" fill="url(#paint3_linear_71_1282)"/>
<path d="M86.7222 96.5572C89.3327 85.5174 109.079 81.4676 113.071 64.597C114.296 59.4499 113.181 55.423 110.53 52.616L110.473 52.5495C109.431 51.4625 108.152 50.547 106.677 49.8324L106.651 49.814C106.06 49.5273 105.444 49.2748 104.804 49.0576C101.572 47.9218 97.6663 47.5735 93.465 48.0322C80.2791 49.4769 70.8919 57.6735 70.8919 57.6735L70.9943 57.8239L75.7106 64.5471C76.1625 65.1786 77.0407 65.3553 77.6825 64.9238C79.841 63.5057 84.6954 60.6462 89.4106 60.1216C90.2413 60.0317 91.0243 60.0111 91.7574 60.0594C93.5245 60.1743 95.0101 60.6495 96.1224 61.4342C97.0346 62.0778 97.7018 62.9393 98.0588 63.9453C98.1407 64.1985 98.2164 64.4603 98.2648 64.7407C98.2879 64.8741 98.3109 65.0076 98.3217 65.1585C98.3555 65.4429 98.3597 65.7323 98.3487 66.0229C98.3406 66.3298 98.3034 66.6409 98.2508 66.9554C98.2232 67.1053 98.1895 67.2639 98.1497 67.4311C98.1195 67.5661 98.0832 67.7099 98.047 67.8536C98.0117 67.959 97.9826 68.0556 97.9473 68.161C97.9207 68.2725 97.8793 68.3866 97.844 68.4919C97.7842 68.6321 97.7331 68.7784 97.6733 68.9185C97.6099 69.0822 97.5404 69.2546 97.4628 69.4199C97.4127 69.5279 97.3503 69.6532 97.3002 69.7611C97.2476 69.8542 97.2036 69.9534 97.151 70.0465C97.129 70.0961 97.1044 70.1309 97.0825 70.1805C97.0175 70.291 96.9674 70.399 96.8938 70.5033C96.8314 70.6286 96.7517 70.7417 96.6806 70.8609C91.9659 78.3737 79.0294 83.1165 74.4076 93.817L74.383 93.8518C74.2731 94.0998 74.1725 94.3532 74.08 94.6135C73.9726 94.8764 73.8833 95.1507 73.7872 95.4346C73.5992 95.978 73.4454 96.5467 73.3026 97.135L72.6152 100.046C72.5222 100.436 72.5956 100.812 72.7784 101.123L72.7809 101.138C73.0644 101.586 73.5812 101.885 74.1795 101.812L84.752 100.658C85.3739 100.589 85.8684 100.145 86.0112 99.5567L86.7222 96.5572ZM81.0379 120.51L83.1864 111.434C83.3345 110.836 83.0907 110.261 82.6447 109.933C82.3577 109.73 82.0102 109.615 81.6282 109.658L75.3095 110.353L75.3034 110.362L74.4641 110.445L72.6147 110.65L71.0435 110.83C70.7653 110.855 70.5024 110.969 70.2888 111.143C70.2617 111.163 70.2494 111.18 70.2223 111.2C70.0106 111.389 69.8568 111.644 69.7991 111.929L69.1127 114.801L69.1117 114.84L67.6425 120.998C67.569 121.324 67.6111 121.652 67.7417 121.926C67.9803 122.472 68.5553 122.839 69.2147 122.77L79.7932 121.608C80.4 121.543 80.9047 121.105 81.0379 120.51Z" fill="url(#paint4_linear_71_1282)"/>
<path d="M82.6453 109.933C82.3583 109.731 82.0109 109.616 81.6288 109.659L75.3102 110.354L75.304 110.362L74.4647 110.446L72.6153 110.651L71.0441 110.83C70.7548 110.862 70.3451 111.081 70.2229 111.2C70.1958 111.22 70.25 111.18 70.2229 111.2L63.864 103.929L63.8737 103.897C64.0818 103.731 64.3379 103.627 64.6136 103.587L64.9511 103.551L68.8828 103.124L75.1928 102.423C75.6132 102.381 76.0015 102.512 76.2814 102.761L76.2911 102.729L76.2998 102.735L82.6453 109.933Z" fill="#A1BEF2"/>
<path d="M64.4766 50.4004L70.1269 58.4417L76.0829 64.9716L70.887 57.6781L64.4766 50.4004Z" fill="url(#paint5_linear_71_1282)"/>
<defs>
<linearGradient id="paint0_linear_71_1282" x1="68.0063" y1="97.6003" x2="95.274" y2="60.8048" gradientUnits="userSpaceOnUse">
<stop stop-color="#8FAFFF"/>
<stop offset="0.5478" stop-color="#4982EB"/>
<stop offset="1" stop-color="#0D5ADA"/>
</linearGradient>
<linearGradient id="paint1_linear_71_1282" x1="73.9706" y1="94.5076" x2="74.5785" y2="93.8571" gradientUnits="userSpaceOnUse">
<stop stop-color="#8FAFFF"/>
<stop offset="0.5478" stop-color="#4982EB"/>
<stop offset="1" stop-color="#0D5ADA"/>
</linearGradient>
<linearGradient id="paint2_linear_71_1282" x1="60.3983" y1="110.006" x2="71.0818" y2="115.852" gradientUnits="userSpaceOnUse">
<stop stop-color="#8FAFFF"/>
<stop offset="0.5478" stop-color="#4982EB"/>
<stop offset="1" stop-color="#0D5ADA"/>
</linearGradient>
<linearGradient id="paint3_linear_71_1282" x1="71.3716" y1="40.6266" x2="103.093" y2="63.0076" gradientUnits="userSpaceOnUse">
<stop stop-color="#8FAFFF"/>
<stop offset="0.5478" stop-color="#4982EB"/>
<stop offset="1" stop-color="#0D5ADA"/>
</linearGradient>
<linearGradient id="paint4_linear_71_1282" x1="63.0251" y1="68.8246" x2="99.4858" y2="94.5498" gradientUnits="userSpaceOnUse">
<stop stop-color="#85AEFC"/>
<stop offset="0.2094" stop-color="#85AEFC"/>
<stop offset="1" stop-color="white"/>
</linearGradient>
<linearGradient id="paint5_linear_71_1282" x1="62.7474" y1="53.5602" x2="77.815" y2="61.8053" gradientUnits="userSpaceOnUse">
<stop stop-color="#85AEFC"/>
<stop offset="0.2094" stop-color="#85AEFC"/>
<stop offset="1" stop-color="white"/>
</linearGradient>
</defs>
</svg>
